<?xml version="1.0" encoding="UTF-8"?>
<svg version="1.1" viewBox="0 0 86.8 86.8" xml:space="preserve" xmlns="http://www.w3.org/2000/svg">
<linearGradient id="e" x1="43.5" x2="43.5" y1="79.63" y2="22.98" gradientUnits="userSpaceOnUse">
	<stop stop-color="#00B8A8" offset="0"/>
	<stop stop-color="#00D7AD" offset="1"/>
</linearGradient>
<path d="m43.4 6c-20.7 0-37.4 16.7-37.4 37.4s16.7 37.4 37.4 37.4 37.4-16.7 37.4-37.4c0.1-20.7-16.7-37.4-37.4-37.4zm6.8 15.8c2.4 0 4.4 2 4.4 4.4s-2 4.4-4.4 4.4-4.4-2-4.4-4.4 2-4.4 4.4-4.4zm-13 0c2.4 0 4.4 2 4.4 4.4s-2 4.4-4.4 4.4-4.4-2-4.4-4.4 2-4.4 4.4-4.4zm-12.7 12.7c1.5-1.2 3.8-1 5 0.5 0.1 0.1 5.6 6.5 13.2 6.8 5 0.2 10-2.2 14.9-7.1 1.4-1.4 3.6-1.4 5 0s1.4 3.6 0 5c-6.1 6.1-12.5 9.2-19.2 9.2h-1c-10.9-0.5-18-9-18.3-9.4-1.3-1.5-1.1-3.7 0.4-5zm18.8 29.9h-1.6c-16.5-0.8-27.4-13.7-27.8-14.3-1.3-1.5-1-3.8 0.5-5 1.5-1.3 3.8-1 5 0.5 0.1 0.2 9.5 11.1 22.7 11.7 8.6 0.4 17.2-3.6 25.5-12 1.4-1.4 3.6-1.4 5 0s1.4 3.6 0 5c-9.2 9.4-19.1 14.1-29.3 14.1z" fill="url(#e)"/>
</svg>
