<svg version="1.1" xmlns="http://www.w3.org/2000/svg" viewBox="0 0 221.1 74.8"><path fill="#fff" d="M37.4 0C16.7 0 0 16.7 0 37.4s16.7 37.4 37.4 37.4 37.4-16.7 37.4-37.4C74.9 16.7 58.1 0 37.4 0Zm6.8 15.8c2.4 0 4.4 2 4.4 4.4 0 2.4-2 4.4-4.4 4.4-2.4 0-4.4-2-4.4-4.4 0-2.4 2-4.4 4.4-4.4zm-13 0c2.4 0 4.4 2 4.4 4.4 0 2.4-2 4.4-4.4 4.4-2.4 0-4.4-2-4.4-4.4 0-2.4 2-4.4 4.4-4.4zM18.5 28.5c1.5-1.2 3.8-1 5 .5.1.1 5.6 6.5 13.2 6.8 5 .2 10-2.2 14.9-7.1a3.5 3.5 0 0 1 5 0 3.5 3.5 0 0 1 0 5c-6.1 6.1-12.5 9.2-19.2 9.2h-1c-10.9-.5-18-9-18.3-9.4-1.3-1.5-1.1-3.7.4-5zm18.8 29.9h-1.6C19.2 57.6 8.3 44.7 7.9 44.1c-1.3-1.5-1-3.8.5-5 1.5-1.3 3.8-1 5 .5.1.2 9.5 11.1 22.7 11.7 8.6.4 17.2-3.6 25.5-12a3.5 3.5 0 0 1 5 0 3.5 3.5 0 0 1 0 5c-9.2 9.4-19.1 14.1-29.3 14.1z"/><g transform="translate(-311 -260.6)"><path fill="#fff" d="M420.5 264.9c-12.4 0-18.7 6.3-18.7 18.7v1.7h-1.6a4.07 4.07 0 0 0-4.2 4.2 4.07 4.07 0 0 0 4.2 4.2h1.6v28.4a4.2 4.2 0 0 0 2.5 3.9 5.08 5.08 0 0 0 3.4 0c.5-.2 1-.5 1.3-.9.4-.4.7-.8.9-1.4.2-.5.3-1.1.3-1.6v-28.4h7.4a4.07 4.07 0 0 0 4.2-4.2 4.07 4.07 0 0 0-4.2-4.2h-7.4v-1.7c0-6.9 3.4-10.3 10.3-10.3a4.07 4.07 0 0 0 4.2-4.2c0-1.2-.4-2.2-1.2-3-.9-.8-1.9-1.2-3-1.2z"/><path fill="#fff" d="M484.3 283.2a4.07 4.07 0 0 0-4.2 4.2v18.9c0 1.6-.3 3.1-.9 4.5-.6 1.4-1.5 2.7-2.5 3.7a11.52 11.52 0 0 1-8.2 3.4c-1.6 0-3.2-.3-4.6-.9-1.4-.6-2.7-1.5-3.7-2.5a11.52 11.52 0 0 1-3.4-8.3v-18.9a4.07 4.07 0 0 0-4.2-4.2 4.07 4.07 0 0 0-4.2 4.2v18.9c0 2.7.5 5.4 1.6 7.8 1.1 2.4 2.5 4.6 4.3 6.4 1.8 1.8 4 3.3 6.4 4.4 2.4 1.1 5.1 1.6 7.8 1.6 2.3 0 4.5-.3 6.5-.9 1.8-.6 3.6-1.5 5.3-2.8.1 1 .5 1.8 1.2 2.5.8.8 1.8 1.2 3 1.2a4.07 4.07 0 0 0 4.2-4.2v-34.9c0-1.2-.4-2.2-1.2-3-1.1-.7-2.1-1.1-3.2-1.1z"/><path fill="#fff" d="m529.4 306.9-.3-.4c-.9-1-2.6-1.9-5.1-2.9l-17.9-5.9c-.6-.2-.8-.6-.8-1.2 0-.7.2-1.1.5-1.5 2.1-2.2 5-3.3 8.6-3.3 3.6 0 6.8 1.3 9.3 3.8.5.5 1.1 1 1.7 1.5.6.5 1.4.7 2.2.7a4.07 4.07 0 0 0 4.2-4.2c0-1-.3-1.9-.9-2.6-4.6-5.2-10.2-7.8-16.6-7.8-2.1 0-4.2.3-6.3.9-2.1.6-4 1.5-5.7 2.6-1.7 1.1-3.1 2.5-4.1 4.1a9.27 9.27 0 0 0-1.6 5.4c0 2.5.9 4.8 2.6 6.7l.4.4c1 1 2.7 2 5.1 2.9l17.9 5.9c.6.2.9.6.9 1.3 0 .6-.2 1-.5 1.4-2.2 2.2-5.1 3.4-8.6 3.4-3.7 0-6.8-1.3-9.3-3.8-.5-.5-1-.9-1.6-1.4-.6-.5-1.4-.8-2.3-.8a4.07 4.07 0 0 0-4.2 4.2c0 1 .3 1.9.9 2.6 4.5 5.1 10.1 7.7 16.6 7.7 2.1 0 4.2-.3 6.3-.9 2.1-.6 4-1.5 5.6-2.6 1.7-1.1 3.1-2.5 4.1-4.1 1.1-1.6 1.6-3.4 1.6-5.4-.2-2.6-1-4.8-2.7-6.7z"/><path fill="#fff" d="M435.7 264.8a4.07 4.07 0 0 0-4.2 4.2v53.4a4.2 4.2 0 0 0 2.5 3.9 5.08 5.08 0 0 0 3.4 0c.5-.2 1-.5 1.3-.9.4-.4.7-.8.9-1.4.2-.5.3-1.1.3-1.6V269c0-1.2-.4-2.2-1.2-3a4.5 4.5 0 0 0-3-1.2z"/></g></svg>
