<svg version="1.1" width="36" height="36"  viewBox="0 0 36 36" preserveAspectRatio="xMidYMid meet" xmlns="http://www.w3.org/2000/svg" xmlns:xlink="http://www.w3.org/1999/xlink">
    <title>pdf-file-line</title>
    <path d="M22.89,2H8.83A1.88,1.88,0,0,0,7,3.91V15H9V4H21v8h8V32H9V27H7v5.09A1.88,1.88,0,0,0,8.83,34H29.17A1.88,1.88,0,0,0,31,32.09V9.92ZM23,10V4.1L29,10Z"></path><path d="M9.45,19.7A2.73,2.73,0,0,0,6.7,17H3v8H4.67V22.4H6.51a2.72,2.72,0,0,0,2.93-2.51A1.21,1.21,0,0,0,9.45,19.7ZM6.33,20.83H4.67V18.57H6.33c.83,0,1.39.44,1.39,1.13S7.16,20.83,6.33,20.83Z"></path><path d="M17.82,21c0-2.34-1.86-4-4.48-4H10.55v8h2.79C16,25,17.82,23.33,17.82,21Zm-4.26,2.45H12.22V18.56h1.34a2.44,2.44,0,0,1,0,4.88h0Z"></path><polygon points="25.11 18.55 25.11 17 19.1 17 19.1 25 20.78 25 20.78 21.83 24.7 21.83 24.7 20.28 20.78 20.28 20.78 18.55 25.11 18.55"></polygon>
</svg>
