<svg width="635" height="401" fill="none" xmlns="http://www.w3.org/2000/svg"><g clip-path="url(#a)"><path d="M285.48.23H.18v149.43h285.3V.23Z" fill="#F2F2F2"/><path d="M285.3 0H0v17.32h285.3V0Z" fill="#CACACA"/><path d="M280.14 24.35H6.63v117.43h273.5V24.35ZM27.04 11.48a2.87 2.87 0 1 0 0-5.74 2.87 2.87 0 0 0 0 5.74Zm10.9 0a2.87 2.87 0 1 0 0-5.74 2.87 2.87 0 0 0 0 5.74Zm-21.84 0a2.87 2.87 0 1 0 .01-5.74 2.87 2.87 0 0 0 0 5.74Z" fill="#fff"/><path d="M225.24 58.76H67.96v7h157.28v-7Zm-101.2 17.48H67.96v7h56.08v-7Zm55.64 17.48H67.96v7h111.72v-7Zm153.58 102.21H64.77v140.62h268.5V195.93Z" fill="#F2F2F2"/><path d="M333.1 195.72H64.6v16.3h268.5v-16.3Z" fill="#CACACA"/><path d="M328.24 217.69H70.44v111.7h257.8V217.7ZM90.05 206.52a2.7 2.7 0 1 0 0-5.4 2.7 2.7 0 0 0 0 5.4Zm10.26 0a2.7 2.7 0 1 0 .01-5.4 2.7 2.7 0 0 0 0 5.4Zm-20.55 0a2.7 2.7 0 1 0 .01-5.4 2.7 2.7 0 0 0 0 5.4Z" fill="#fff"/><path d="M512.5 61.63H194.02v166.8H512.5V61.63Z" fill="#E6E6E6"/><path d="M512.3 61.37H193.83V80.7H512.3V61.37Z" fill="#00D7AD"/><path d="M504.83 86.64H201.17v132.48h303.66V86.64ZM224 74.19a3.2 3.2 0 1 0 .01-6.41 3.2 3.2 0 0 0 0 6.4Zm12.18 0a3.2 3.2 0 1 0 0-6.41 3.2 3.2 0 0 0 0 6.4Zm-24.38 0a3.2 3.2 0 1 0 .01-6.4 3.2 3.2 0 0 0 0 6.4Z" fill="#fff"/><path d="M469.58 120.75H236.75v10.36h232.83v-10.36Zm-149.82 25.88h-83.01v10.35h83.01v-10.35Zm82.37 25.87H236.75v10.36h165.38V172.5Z" fill="#E6E6E6"/><path d="M293.06 250.84H117.5v7.8h175.56v-7.8ZM180.1 270.35h-62.6v7.8h62.6v-7.8Zm62.1 19.52H117.5v7.8h124.7v-7.8Z" fill="#F2F2F2"/><path d="m360.62 63.88-14.97 8.28 15.97-5.62-1-2.66Z" fill="#fff"/><path d="M367.37 72.02c2.2-.7 2.8-4.86 1.37-9.26-1.44-4.41-4.38-7.41-6.57-6.7-2.2.71-2.8 4.86-1.37 9.27 1.43 4.4 4.37 7.4 6.57 6.7Z" fill="#3F3D56"/><path d="m365.73 59.2 9.93-3.58 2.11 5.83-9.6 6.48-2.44-8.73Z" fill="#3F3D56"/><path d="M373.19 62.06a9.65 9.65 0 0 0 13.55 5.99l24.43 24.11 3.5-17.46-23.73-20.22a9.72 9.72 0 0 0-17.75 7.58ZM559.3 214.2a9.64 9.64 0 0 0-2.27-14.62l7.14-33.53-16.63 6.5-4.23 30.85a9.67 9.67 0 0 0 3.19 12.48 9.75 9.75 0 0 0 12.8-1.68Zm-80.45 174.74h-11.8l-5.6-45.36h17.4v45.36Z" fill="#BB858D"/><path d="M481.86 400.34h-38.02v-.48a14.72 14.72 0 0 1 9.14-13.64 14.8 14.8 0 0 1 5.66-1.12h23.22v15.24Z" fill="#1B5E57"/><path d="M536.55 388.94h-11.8l-5.6-45.36h17.4v45.36Z" fill="#BB858D"/><path d="M539.55 400.34h-38.01v-.48a14.74 14.74 0 0 1 14.8-14.76h23.21v15.24Zm-59.47-35.09-16.7-.66a4.35 4.35 0 0 1-4.14-4.45l4.7-153.83.3-.12c29.25-10.55 53.45-9.75 73.98 2.44l.23.14 2.81 149.83a4.3 4.3 0 0 1-4.32 4.4h-14.08a4.35 4.35 0 0 1-4.24-3.49l-19.17-97.27a1.44 1.44 0 0 0-1.47-1.16 1.45 1.45 0 0 0-1.38 1.27l-12.06 99.11a4.34 4.34 0 0 1-4.46 3.8Z" fill="#1B5E57"/><path d="M507.64 68.5a23.53 23.53 0 0 0 9.4-31.96 23.65 23.65 0 0 0-32.06-9.38 23.53 23.53 0 0 0-9.4 31.98 23.65 23.65 0 0 0 32.06 9.37Z" fill="#BB858D"/><path d="M391.38 71.27c.37-.8.99-1.45 1.75-1.89l7.12-4.08a4.35 4.35 0 0 1 4.95.45l23.67 20 54.4 15.21a13.93 13.93 0 0 1 8 13.24 13.88 13.88 0 0 1-9.2 12.44 13.98 13.98 0 0 1-10.66-.5l-34.75-7.81a44.6 44.6 0 0 1-26.24-17.19L391.8 75.67a4.3 4.3 0 0 1-.41-4.4ZM558.3 192.49c-.83.3-1.73.34-2.59.11l-7.94-2.1a4.35 4.35 0 0 1-3.2-3.8l-2.68-30.82-27.9-49a13.87 13.87 0 0 1 8.31-17.86 13.97 13.97 0 0 1 17.88 8.3l19.17 29.95a44.39 44.39 0 0 1 6.5 30.63l-4.75 31.18a4.33 4.33 0 0 1-2.8 3.41Z" fill="#00BAA8"/><path d="M470.48 89.67a40.22 40.22 0 0 1 33.43-12.92 40.22 40.22 0 0 1 29 15.97 40.6 40.6 0 0 1 7.24 32.75 126.66 126.66 0 0 0 3.36 65.1l6.34 19.63a4.31 4.31 0 0 1-3.9 5.63l-32.38 1.74-8.3-14.28v14.73l-39.36 2.1-.24.01a4.36 4.36 0 0 1-4.09-2.9 4.3 4.3 0 0 1-.22-1.76l4.45-55.04-5.58-37.38a40.29 40.29 0 0 1 10.25-33.38Z" fill="#00BAA8"/><path d="M512.73 70.33c-2.19 1.25-10.83 2.08-11.45-.36l-.01-.05c-.43-1.79-.07-3.66.05-5.49.12-1.83-.06-3.85-1.31-5.2-2.34-2.51-6.49-1.18-9.87-1.81a8.33 8.33 0 0 1-6.48-8.88c.05-.38.13-.76.21-1.14a6.38 6.38 0 0 0-6.66-7.76c-3.41.2-7.1 1.23-9.92-1.3-2.18-1.94-2.71-7.02-1.75-9.78 1.6-4.64 11.93-7.07 16.44-8.4a39.16 39.16 0 0 1 33.11 5.42c2.85 2 5.5 4.51 6.72 7.77 1.21 3.26.63 7.37-2.1 9.52a17.58 17.58 0 0 1 4.07 17.08c-1.35 4.34-7.8 8.5-11.05 10.38Z" fill="#2F2E41"/><path d="M634.28 401H360.77a.72.72 0 1 1 0-1.43h273.51a.71.71 0 1 1 0 1.43Z" fill="#CACACA"/></g><defs><clipPath id="a"><path fill="#fff" d="M0 0h635v401H0z"/></clipPath></defs></svg>