<svg width="481" height="388" fill="none" xmlns="http://www.w3.org/2000/svg"><path d="M76.66 361.14a17.53 17.53 0 0 0 16.67 4.2c7.45-2.1 12.5-8.82 16.99-15.13l13.27-18.66-11.19 2.05c-8.04 1.47-16.29 3.02-23.3 7.24-7 4.22-12.61 11.76-12.17 19.93" fill="#E6E6E6"/><path d="M66.26 386.28c1.96-6.7 3.94-13.47 7.4-19.57 3.08-5.42 7.28-10.17 12.83-13.12a28.64 28.64 0 0 1 9.43-3.07c.86-.12 1 1.22.14 1.34a27.23 27.23 0 0 0-15.14 7.45c-4.59 4.48-7.6 10.26-9.81 16.2-1.35 3.6-2.43 7.29-3.51 10.97a.7.7 0 0 1-.77.56.68.68 0 0 1-.56-.76Z" fill="#F2F2F2"/><path d="M282.29 116.84a8.97 8.97 0 0 1 11.06 8.19l30.69 8.63-12.53 10.84-27.22-9.85a9.02 9.02 0 0 1-2-17.8Zm78.87 261.35h-8.95l-4.25-34.51h13.2v34.5Z" fill="#FFB7B7"/><path d="M363.44 386.86h-28.85v-.37a11.23 11.23 0 0 1 11.23-11.23h17.62v11.6Z" fill="#2F2E41"/><path d="M413.58 378.19h-8.95l-4.25-34.51h13.2v34.5Z" fill="#FFB7B7"/><path d="M415.86 386.86h-28.85v-.37a11.23 11.23 0 0 1 11.23-11.23h17.62v11.6Zm-62.01-206.73-13.18 91.28 3.28 96.17 19.8 1.58 6.18-86.25 15.75-48.1 9.26 68.56.38 64.21 20.44 1.58 7.12-135-5.24-58.7-63.8 4.67Z" fill="#2F2E41"/><path d="M391.96 57.91a20.85 20.85 0 1 0 0-41.7 20.85 20.85 0 0 0 0 41.7Z" fill="#FFB7B7"/><path d="M379.11 69.25 356.1 185.2s38.75 11.12 55.72.86c16.98-10.27 9.37-41.97 9.37-41.97l-3.1-53.93-5.75-13.63-4.88-11.26-28.35 3.98Z" fill="#CBCBCB"/><path d="M372.38 151.56 380.33 67l-6.36 4.64-22.23 7.22-1.52 59.53-15.55 78.29s11.11 21.69 24.89-14.2l12.82-50.92Z" fill="#1B5E57"/><path d="m362.44 87.77-10.7-8.9-24.05 52.23-26.83-5.88-1.27 15.85 38.88 15.39 26.5-36.89-2.53-31.8Zm41.62 45.28 3-68.82 11.02 8.54 19.7 5.5-2.9 54.78 4.16 85.01-20.64 6.54-5.8-53.64-8.54-37.91Z" fill="#1B5E57"/><path d="M405.38 188.44a8.97 8.97 0 0 1 11.94-6.83l20.23-24.64 4.9 15.83-19.96 20.97a9.02 9.02 0 0 1-17.1-5.33Z" fill="#FFB7B7"/><path d="m424.59 85.9 13.18-7.64 33.18 65.52-32.34 44.91-18.45-14.75 22.4-29.21-20.42-31.38 2.45-27.45Z" fill="#1B5E57"/><path d="m411.57 20.4 1.01-2.04-5.08-2.52s-5.62-9.13-15.77-6.57a226.16 226.16 0 0 0-14.72 4.1l-5.07 2.56 2.55 2.53-4.57 1.54 3.05 1.51-3.55 2.04 1.91 10.46s3.18-7.93 9.28-4.9c6.1 3.03 17.26-1.57 17.26-1.57l9.7 18.77s2-6.58 5.57-4.82c0 0 9.11-14.52-1.57-21.1Z" fill="#2F2E41"/><path d="M272.62 93h-.1l-55.38 23.74-75.78 32.48a2.44 2.44 0 0 1-1.87 0L61.3 116.68 4.56 93.04 4.47 93h-.1A3.37 3.37 0 0 0 1 96.39v147.22A3.4 3.4 0 0 0 4.38 247h268.24a3.37 3.37 0 0 0 3.38-3.39V96.39a3.4 3.4 0 0 0-3.38-3.39Z" fill="#fff"/><path d="M272.52 94c-.1 0-.2-.03-.28-.09L138.9 1.4a2.42 2.42 0 0 0-2.76 0L3.76 93.91a.48.48 0 0 1-.75-.47.44.44 0 0 1 .2-.31L135.58.6a3.4 3.4 0 0 1 3.86 0L272.8 93.12a.48.48 0 0 1-.27.87Z" fill="#3F3D56"/><path d="M12 97.69 138.02 4 265 104.35 144.51 176l-65.4-14.96L12 97.7Z" fill="#E6E6E6"/><path d="M84.09 220H21.9a2.83 2.83 0 0 1-2.05-.87A3 3 0 0 1 19 217a3.08 3.08 0 0 1 .85-2.12 2.9 2.9 0 0 1 2.05-.88h62.2a2.83 2.83 0 0 1 2.05.87A3 3 0 0 1 87 217a3.09 3.09 0 0 1-.85 2.12 2.9 2.9 0 0 1-2.05.88h-.01ZM44.1 208H21.9a2.8 2.8 0 0 1-2.05-.87A3 3 0 0 1 19 205a3.1 3.1 0 0 1 .85-2.12 2.89 2.89 0 0 1 2.04-.88h22.22c.76 0 1.5.31 2.04.88a3.06 3.06 0 0 1 0 4.24 2.8 2.8 0 0 1-2.03.88h-.01Zm96.08-58c-.47 0-.94-.1-1.38-.27L61 117.44V16.37A3.38 3.38 0 0 1 64.37 13h149.26a3.38 3.38 0 0 1 3.37 3.37v101.14l-.15.06-75.24 32.14c-.45.2-.94.29-1.43.29Z" fill="#00BAA8"/><path d="M272.61 93h-.1l-55.58 23.74-76.06 32.48a2.46 2.46 0 0 1-1.88 0l-78.46-32.55L3.57 93.04 3.5 93h-.1A3.4 3.4 0 0 0 0 96.39v147.22A3.4 3.4 0 0 0 3.39 247H272.6a3.39 3.39 0 0 0 3.39-3.39V96.39A3.4 3.4 0 0 0 272.6 93Zm2.42 150.61a2.43 2.43 0 0 1-2.42 2.42H3.4a2.42 2.42 0 0 1-2.42-2.42V96.39a2.43 2.43 0 0 1 2.33-2.42l57.23 23.75 78.09 32.4c.84.35 1.8.34 2.63 0l75.68-32.33 55.78-23.82a2.43 2.43 0 0 1 2.32 2.42v147.22Z" fill="#3F3D56"/><path d="M128.13 50H74.87a4.1 4.1 0 0 1-2.74-1.03A3.34 3.34 0 0 1 71 46.5c0-.93.4-1.82 1.13-2.47A4.1 4.1 0 0 1 74.87 43h53.26a4.1 4.1 0 0 1 2.74 1.03A3.34 3.34 0 0 1 132 46.5c0 .93-.4 1.82-1.13 2.47a4.1 4.1 0 0 1-2.74 1.03Zm-27.96-16H74.83a3.74 3.74 0 0 1-2.7-1.17 4.1 4.1 0 0 1 0-5.66 3.74 3.74 0 0 1 2.7-1.17h25.34c1.02 0 2 .42 2.7 1.17a4.1 4.1 0 0 1 0 5.66 3.74 3.74 0 0 1-2.7 1.17Zm77.96 55H96.87a3.8 3.8 0 0 1-2.74-1.17 4.07 4.07 0 0 1 0-5.66A3.8 3.8 0 0 1 96.87 81h81.26a3.8 3.8 0 0 1 2.74 1.17 4.07 4.07 0 0 1 0 5.66 3.8 3.8 0 0 1-2.74 1.17Zm-.01 18H96.88a3.77 3.77 0 0 1-2.74-1.17A4.01 4.01 0 0 1 93 103a4.11 4.11 0 0 1 1.14-2.83A3.86 3.86 0 0 1 96.88 99h81.24a3.76 3.76 0 0 1 2.74 1.17A4.02 4.02 0 0 1 182 103a4.11 4.11 0 0 1-1.14 2.83 3.88 3.88 0 0 1-2.74 1.17Z" fill="#fff"/><path d="M480.19 387.7H266.44a.81.81 0 0 1 0-1.63H480.2a.81.81 0 0 1 .81.82.81.81 0 0 1-.81.8Zm-373.04 0H28.32a.81.81 0 0 1 0-1.63h78.83a.81.81 0 0 1 0 1.63Z" fill="#CBCBCB"/><path d="M57.3 362.57a17.53 17.53 0 0 0 14.8-8.77c3.78-6.75 2.63-15.08 1.36-22.72l-3.75-22.59-6.48 9.34c-4.67 6.72-9.42 13.64-11.41 21.57-2 7.93-.66 17.24 5.42 22.71" fill="#E6E6E6"/><path d="M67.66 387.73c-3.33-6.13-6.71-12.33-8.55-19.1-1.64-6-2.01-12.34-.16-18.34a28.63 28.63 0 0 1 4.52-8.83c.53-.7 1.57.16 1.05.85a27.23 27.23 0 0 0-5.49 15.96c-.09 6.41 1.86 12.63 4.48 18.41 1.58 3.5 3.4 6.88 5.24 10.25a.7.7 0 0 1-.15.94.68.68 0 0 1-.94-.14Z" fill="#F2F2F2"/></svg>