<svg data-name="Layer 1" xmlns="http://www.w3.org/2000/svg" width="405.95" height="611.97"><path d="m320.86 492.28-.92 1.07a117.72 117.72 0 0 0-11.32 15.54c-.27.42-.53.85-.77 1.27a124.62 124.62 0 0 0-15.9 43.04q-.86 5.16-1.3 10.38-.32 4.02-.38 8.05c-.16 11.28.84 23.83-6.43 32.45a22.69 22.69 0 0 1-6.98 5.48 29.18 29.18 0 0 1-6.32 2.39h-22.67l-3.42-.53-.1-.01-.22.08-1.37.46-.06.02v-.02a.49.49 0 0 0-.01-.12 1.62 1.62 0 0 0-.01-.22v-.01l-.02-.59-.03-.53v-.01l-.04-.91c-1.05-26.1 1.5-53.07 13.83-76.05a84.97 84.97 0 0 1 16.12-21.21 1.2 1.2 0 0 1 .12-.11c12.8-12.22 29.37-20.21 46.85-19.94q.67 0 1.35.03Z" fill="#f0f0f0"/><path d="M320.91 492.84a105.87 105.87 0 0 0-46 46.13 45.6 45.6 0 0 0-4.64 13.5 26.15 26.15 0 0 0 1.7 13.66c1.58 4.06 3.66 8.03 4.22 12.4a16.01 16.01 0 0 1-3.97 12.48c-3.64 4.29-8.6 7.02-13.55 9.51-5.49 2.78-11.24 5.57-15.05 10.58-.46.6-1.38-.14-.92-.75 6.64-8.72 18.32-10.62 26.28-17.72 3.7-3.3 6.45-7.75 6.14-12.87-.27-4.48-2.42-8.58-4.05-12.68a27.9 27.9 0 0 1-2.16-13.29 42.15 42.15 0 0 1 4.11-13.63 102.71 102.71 0 0 1 18.23-26.43 107.75 107.75 0 0 1 29.25-22c.68-.34 1.08.77.41 1.11Z" fill="#fff"/><path d="M277.8 532.4a15.88 15.88 0 0 1-5.3-19.88c.33-.69 1.41-.2 1.08.48a14.7 14.7 0 0 0 4.97 18.48c.62.43-.13 1.34-.76.91Zm-6.9 31.78a30.61 30.61 0 0 0 19.1-11.53c.46-.61 1.38.14.92.75a31.84 31.84 0 0 1-19.9 11.96c-.76.13-.87-1.05-.12-1.18Zm29.4-57.95a9 9 0 0 0 8.1 2.66c.75-.14.86 1.04.12 1.18a10.08 10.08 0 0 1-8.98-2.93.61.61 0 0 1-.08-.83.6.6 0 0 1 .84-.08Z" fill="#fff"/><path d="m376.07 564.64-1.4.31a119.08 119.08 0 0 0-18.38 5.58 79 79 0 0 0-1.38.55h-.01a124.76 124.76 0 0 0-38.44 24.68l-.12.11a.6.6 0 0 1-.08.08l-.05.05a121.68 121.68 0 0 0-12.31 13.56l-.02.03c-.6.78-1.21 1.56-1.81 2.36h-59.31l-.06.02v-.02h-.25c0-.01 0-.02.02-.03v-.02l.2-.29v-.01a.28.28 0 0 1 .07-.08l.18-.27 1.19-1.69c.65-.93 1.3-1.86 1.98-2.78a.01.01 0 0 1 0-.01v-.01l.03-.03.02-.02c8.25-11.42 17.53-22.26 28.16-31.34.32-.28.64-.56.98-.82a114.82 114.82 0 0 1 15.37-10.97q4.44-2.62 9.15-4.82a85.13 85.13 0 0 1 25.59-7.22h.02l.07-.01.07-.01c17.6-2.04 35.66 1.55 49.47 12.29l1.05.83Z" fill="#f0f0f0"/><path d="M242.45 611.95h.25v.02l.06-.02h15.87c-4.73-.81-9.45-1.44-14.18-.53l-.32.07c-.48.09-.96.21-1.44.34l-.1.03a.34.34 0 0 0-.12.06.15.15 0 0 0-.07.03Zm133.33-46.82c-.37-.06-.73-.13-1.1-.18h-.01a105.41 105.41 0 0 0-23.35-1.18l-1.2.07a105.33 105.33 0 0 0-31.56 7.19l-.01.01-.32.12c-2.35.95-4.67 1.99-6.94 3.11a45.7 45.7 0 0 0-11.85 7.98 25.48 25.48 0 0 0-6.21 9.89l-.38 1.13c-.1.3-.18.61-.27.91-1.18 4.19-1.91 8.61-4.1 12.44a14.65 14.65 0 0 1-2.2 2.94 15.12 15.12 0 0 1-2.95 2.39h-2.52a14.53 14.53 0 0 0 3.79-2.39 12.54 12.54 0 0 0 2.29-2.61c2.48-3.74 3.24-8.3 4.4-12.55.19-.69.39-1.36.6-2.03a26.65 26.65 0 0 1 5.68-9.89 42.18 42.18 0 0 1 11.49-8.41q4.05-2.13 8.32-3.86c.37-.16.74-.3 1.1-.44a108.08 108.08 0 0 1 56.54-5.96c.37.05.73.12 1.1.18.75.13.4 1.27-.34 1.14Z" fill="#fff"/><path d="M317.54 570.75a15.88 15.88 0 0 1 7.74-19.06c.68-.35 1.26.69.58 1.04a14.7 14.7 0 0 0-7.16 17.74c.24.72-.91 1-1.16.28Zm-24.64 21.22a30.61 30.61 0 0 0 22.2 2.3c.73-.2 1.01.94.28 1.15a31.84 31.84 0 0 1-23.1-2.43c-.67-.36-.05-1.37.62-1.02Zm58.36-28.57a9 9 0 0 0 4.87 7c.69.35.07 1.36-.61 1.02a10.08 10.08 0 0 1-5.4-7.74.61.61 0 0 1 .43-.71.6.6 0 0 1 .71.43Z" fill="#fff"/><path d="M317.07 166.29q.4-49.67 4.04-100.29l.14-2q1.92-26.35 4.7-52.9V11a11 11 0 0 0-11-11h-295a11.02 11.02 0 0 0-11 10.95Q5.1 47.51 2.93 83.7c-.06.79-.1 1.57-.14 2.36q-1.08 17.9-1.72 35.7c-.03.7-.06 1.4-.07 2.1a1478.89 1478.89 0 0 0 7.95 218.2 11.02 11.02 0 0 0 11 10.94h295a11 11 0 0 0 11-11v-.11q-2.18-19.3-3.82-38.86l-.47-5.73q-1.14-14.08-2-28.28-.17-2.86-.32-5.73-1.6-28.41-2.1-57.26l-.1-5.73q-.18-14.08-.11-28.28c0-1.91 0-3.82.04-5.73Z" fill="#f0f0f0"/><path d="M405.95 75a11 11 0 0 0-11-11h-295a11.02 11.02 0 0 0-11 10.95C78.99 169.92 77.34 263.21 84 353q1.21 16.67 2.84 33.16.87 8.84 1.85 17.62l.25 2.28a11.02 11.02 0 0 0 11 10.94h295a11 11 0 0 0 11-11v-.11c-11.93-105.77-11.93-217.06 0-330.79Z" fill="#fff"/><path d="M405.95 75a11 11 0 0 0-11-11h-295a11.02 11.02 0 0 0-11 10.95C78.99 169.92 77.34 263.21 84 353q1.21 16.67 2.84 33.16.87 8.84 1.85 17.62l.25 2.28a11.02 11.02 0 0 0 11 10.94h295a11 11 0 0 0 11-11v-.11c-11.93-105.77-11.93-217.06 0-330.79Zm-2 331.06a9 9 0 0 1-9 8.94h-295a9.01 9.01 0 0 1-9-9v-.11l-.21-1.93q-1.04-9.18-1.93-18.41Q87.23 369.37 86 353c-6.64-89.74-5-182.97 4.96-277.9V75a9.01 9.01 0 0 1 9-9h295a9 9 0 0 1 9 8.95c-11.93 113.82-11.93 225.23 0 331.11Z" fill="#e4e4e4"/><path data-name="Path 142" d="M120.28 166.29a2.87 2.87 0 0 0 0 5.73h239.73a2.87 2.87 0 0 0 0-5.73Z" fill="#e6e6e6"/><path data-name="Path 143" d="M120.28 183.49a2.87 2.87 0 0 0 0 5.73h162.75a2.87 2.87 0 0 0 0-5.73Z" fill="#e6e6e6"/><path data-name="Path 142" d="M120.28 200.3a2.87 2.87 0 0 0 0 5.73h239.73a2.87 2.87 0 0 0 0-5.73Z" fill="#e6e6e6"/><path data-name="Path 143" d="M120.28 217.5a2.87 2.87 0 0 0 0 5.73h162.75a2.87 2.87 0 0 0 0-5.73Z" fill="#e6e6e6"/><path data-name="Path 142" d="M120.28 263.29a2.87 2.87 0 0 0 0 5.73h239.73a2.87 2.87 0 0 0 0-5.73Z" fill="#e6e6e6"/><path data-name="Path 143" d="M120.28 280.49a2.87 2.87 0 0 0 0 5.73h162.75a2.87 2.87 0 0 0 0-5.73Z" fill="#e6e6e6"/><path data-name="Path 142" d="M120.28 297.3a2.87 2.87 0 0 0 0 5.73h239.73a2.87 2.87 0 0 0 0-5.73Z" fill="#e6e6e6"/><path data-name="Path 143" d="M120.28 314.5a2.87 2.87 0 0 0 0 5.73h162.75a2.87 2.87 0 0 0 0-5.73Z" fill="#e6e6e6"/><path data-name="Path 154" d="M167.72 130.7h-45.8a2.24 2.24 0 0 1-2.23-2.24v-7.33a2.24 2.24 0 0 1 2.24-2.24h45.79a2.24 2.24 0 0 1 2.23 2.24v7.33a2.24 2.24 0 0 1-2.23 2.24Z" fill="#00d7ad"/><path d="m326.79 366.68-14.03 4.63-7.01 2.32c-2.17.71-4.51 1.56-6.83 1.25-1.6-.2-3.43-1.13-3.92-2.78-.48-1.56.52-3.19 1.74-4.11 3.34-2.55 7.58.04 9.95 2.68 2.9 3.23 4.54 7.39 7.26 10.77a25.91 25.91 0 0 0 8.98 7.15c6.95 3.28 15.41 2.93 21.6-1.85 7.4-5.7 8.15-15.58 8.19-24.2a1.5 1.5 0 0 0-3 0c-.04 7.8-.48 17.39-7.6 22.28-6.83 4.68-15.8 3.44-22.09-1.55-3.5-2.78-5.65-6.4-7.95-10.16-2.25-3.67-5.03-7.22-9.26-8.65a8.36 8.36 0 0 0-9.98 3.49 6.35 6.35 0 0 0 2.93 9.06c4.9 2.34 10.5-.4 15.22-1.96l16.6-5.48c1.82-.6 1.04-3.5-.8-2.9Z" fill="#00d7ad"/><path fill="#9f616a" d="m285.22 587.18-9.83 3.24-17.18-36.39 14.52-4.79 12.49 37.94z"/><path d="m292.24 595.44-.67-2.03-1.76-5.35-1.2-3.64-3.28 1.08-.68-.05-9.01-.61-1.2-.08-1.78-.12-1.84-.13-5.14 7.47h-.01a15.26 15.26 0 0 0-8.92 7.68l-.31.66a12.85 12.85 0 0 0-.63 1.66 15.21 15.21 0 0 0-.42 7.58 17.4 17.4 0 0 0 .49 1.85l.03.1.12.37.72-.24 6.32-2.08 22.14-7.29 4.39-1.45 1.35-.45 2.63-.86Z" fill="#2f2e41"/><path fill="#9f616a" d="M192 595.73h-10.35l-4.93-39.94h15.29l-.01 39.94z"/><path d="m175.43 420.65-4.59 7.94s-5.04 1.38-3.4 17.82c1.17 11.61 1.55 63.6 4.48 97.36 1.22 14.05 2.88 24.95 5.23 28.48l1.44 1.29 15.07 1.44.38-.13 5.53-39.08a65.65 65.65 0 0 0-.44-21.11l-1-11 13.87-55.7s14.13 35.7 23.13 69.7c2.17 8.18 10.4 13.39 13.52 20.41 1.04 2.36 2.07 4.64 3.07 6.82 6.6 14.41 9.9 24.9 12.4 25.77h2l12-4 2.37-5.94-18.36-54.06-13.75-87.3c-26.2-14.08-50.77-15.65-72.95 1.3Z" fill="#2f2e41"/><path d="M250.48 303.03a40.79 40.79 0 0 0-3.18-5.73 29.46 29.46 0 0 0-11.17-10.21l-3.94-.87-7.06-1.56-3.72-4.17-6.1-6.83h-21l-2.81 6.83-2.36 5.73-1.01 2.44-17.98 8.99-.02.01.7 5.37q.77 5.8 1.45 11.47l.66 5.73q1 8.94 1.73 17.57.64 7.71 1.03 15.2a334.13 334.13 0 0 1 .14 34.05c-.14 2.67 2.5 5.71 2.3 8.32-.35 4.26-3.64 8.04-4.22 12.11-.36 2.5-.2 5.16-.83 7.52a8.41 8.41 0 0 1-.78 1.98l-.01.02c-7.2 12.86-1.55 6.72-2.22 9.61l.32.08c.15.04.6.16 1.35.33 4.23 1.01 21.67-15.36 33.38-15.36 7.03 0 25.64 11.56 31.87 12.4 4.93.66 9.33 1.26 11.95-1.05a6.13 6.13 0 0 0 1.69-2.48l.03-.09-.01-.09-.25-3.35-.15-2-2.14-28.7a10.17 10.17 0 0 1-1.3-10.69l.44-.93-1.62-21.68-.3-4.05-.11-1.37v-.01l-.78-10.47 1.88-5.72v-.01l3.66-11.14 1.88-5.73 1.18-3.6.08-.24a40.93 40.93 0 0 0-2.65-7.63Z" fill="#00d7ad"/><path d="m268.72 406.44-20.16-52.1-9.36-19.03 18-9.94 14.5 25.55 9.73 53.38a9.29 9.29 0 1 1-12.7 2.14Z" fill="#9f616a"/><path d="m269.13 334.66-5.16-3.34-5.93-11.09-3.06-5.73-1.93-3.6-.82-1.54-9.27-6.33-6.26-4.28-5.1 4.28-2.43 2.04 2.38 9.43 1.44 5.73 3.14 12.43 9.2 16.29 2.3 4.05 1.3 2.33.02.02.18.31 23.27-.97.73-.03.04-1.66.02-.6v-.9a36.95 36.95 0 0 0-4.06-16.84Z" fill="#00d7ad"/><path d="m93 385.72 41.25-37.69 14.33-15.62 15.8 13.17-18.55 22.78-46.22 28.42a9.29 9.29 0 1 1-6.6-11.06Z" fill="#9f616a"/><path d="m178.14 320.23-.08-5.73-.15-11.47-.06-4.45-.17-.12a7.52 7.52 0 0 0-3.1-1.16 8.96 8.96 0 0 0-2.92 0 10.47 10.47 0 0 0-1.51.35l-.02.01a17.3 17.3 0 0 0-7.57 5.36l-.01.01a74.68 74.68 0 0 0-7.94 11.47 179.73 179.73 0 0 0-3.22 5.73c-3.82 7.11-6.57 13.27-6.62 13.38l-11.42 14.83.16.27L136 353l9.2 15.73 1.47 2.5 3.73-1.99a21.69 21.69 0 0 0 9.72-10.58l1.33-5.08.49-.58 12.72-15.2 3.64-4.36Z" fill="#00d7ad"/><circle cx="599.59" cy="406.35" r="19.25" transform="rotate(-80.78 309.87 561.9)" fill="#9f616a"/><path d="M184.11 238.39c-.85-3-2.56-5.56-1.7-5.56s1.28-2.14 1.28-2.14.85-.43 1.28 0 .85-3 .85-3 .43-1.28.86-.43.43.43.86-.85 2.56-2.14 2.56-2.14 8.13.43 9.41-1.28 15.83-.43 18.83 1.7 14.79 5.97 7.79 17.97c4 7-1.97 19.49-3.52 20.97-2.44 2.34-4.12 3.18-15.67 5.48-2.26.45-7.81-18.45-7.81-18.45s-14.16-9.28-15.02-12.27Zm8.52 355.78-.62-.25-11.14-4.54-1.71-.69-7.22 5.48h-.01a15.4 15.4 0 0 0-15.38 15.39v.5h39.53v-15.89Z" fill="#2f2e41"/><path d="M308.82 610.75a1.2 1.2 0 0 1-1.2 1.2h-203.3a1.2 1.2 0 0 1 0-2.39h203.3a1.2 1.2 0 0 1 1.2 1.19Z" fill="#ccc"/><path d="M98.93 0A134.27 134.27 0 0 1 1.07 121.76c-.03.7-.06 1.4-.07 2.1A136.29 136.29 0 0 0 100.93 0ZM68.3 0A134.55 134.55 0 0 1 2.93 83.7c-.06.79-.1 1.57-.14 2.36A136.62 136.62 0 0 0 70.37 0Z" fill="#fff"/></svg>