<svg width="607" height="384" fill="none" xmlns="http://www.w3.org/2000/svg"><g clip-path="url(#a)"><path d="m502.58 383.45 1.64-.03a380.18 380.18 0 0 0-5.83-54.39c-7.1-38.46-18.92-63.73-35.11-75.09l-.94 1.35c37.82 26.53 40.22 127.15 40.24 128.16Zm-20.54-.39 1.64-.03c-.03-1.82-1.06-44.65-17.94-56.49l-.94 1.34c16.2 11.37 17.23 54.74 17.24 55.18Z" fill="#fff"/><path d="M452.99 255.44a8.2 8.2 0 1 0 0-16.42 8.2 8.2 0 0 0 0 16.42Zm4.07 70.56a8.2 8.2 0 1 0 0-16.42 8.2 8.2 0 0 0 0 16.42Z" fill="#00D7AD"/><path d="M485.87 260.36c-1.54 9.84 2.48 18.65 2.48 18.65s6.53-7.16 8.07-17c1.54-9.85-2.48-18.66-2.48-18.66s-6.53 7.16-8.07 17Zm-26.85 23.92c9.44 3.23 18.83.8 18.83.8s-5.93-7.66-15.37-10.9c-9.44-3.23-18.82-.8-18.82-.8s5.92 7.66 15.36 10.9Zm-.3 62.49a25.59 25.59 0 0 0 13.2.57 23.31 23.31 0 0 0-23.97-8.21 25.57 25.57 0 0 0 10.77 7.64Z" fill="#fff"/><path d="m267.03 127.34-52.96-27.5s-17.78-19.57-28.95-28.4c-11.17-8.84-14.6-2.35-14.6-2.35l-4.7 7.81 11.34 15.77 30.65 25.92 54.76 21.43a8.68 8.68 0 1 0 4.46-12.68Zm-137.75-23.79-3.13-19.16-8.86-2.21s-7.02-2.16-8.66 11.97c-1.65 14.14-.37 40.54-.37 40.54l-17.98 56.85a8.7 8.7 0 1 0 12.13 5.82l23.55-53.83 3.32-39.98Zm73.22 268.89h11.59l5.51-44.63h-17.1v44.63Z" fill="#A0616A"/><path d="M199.55 368.67h22.82a14.55 14.55 0 0 1 14.54 14.52v.47h-37.36v-15Z" fill="#1B5E57"/><path d="M76.16 372.44h11.58l5.51-44.63h-17.1v44.63Z" fill="#A0616A"/><path d="M73.2 368.67h22.82a14.54 14.54 0 0 1 14.54 14.52v.47H73.2v-15Z" fill="#1B5E57"/><path d="m133.35 65.27-19.22 16.39 15.77 49.85 3.56 11.13s-21.73 20.01-35.17 75.9c-13.44 55.9-35.43 130.18-35.43 130.18l46.42 13.27 37.76-126.44 44.42 99.2 5.13 29.34 39.53-11.65-9.33-73.58-46.62-127.38 4.84-33.76s7.28-16.86-5.36-34.7l-3.96-16.77-14.2-3.49-28.14 2.51Z" fill="#00BAA8"/><path d="M165.27 56.37h-51.95a4.04 4.04 0 0 1-4.03-4.03V29.97a29.96 29.96 0 0 1 30-29.97 30.02 30.02 0 0 1 30 29.97v22.37a4.03 4.03 0 0 1-4.02 4.03Z" fill="#181B0C"/><path d="M164.76 44.41a21.96 21.96 0 0 0-8.75-29.82 22.01 22.01 0 0 0-29.85 8.74 21.96 21.96 0 0 0 8.75 29.82 22.01 22.01 0 0 0 29.85-8.74Z" fill="#A0616A"/><path d="M176.4 32.21h-31.77l-.32-4.56-1.63 4.56h-4.9l-.64-9.03-3.23 9.03h-9.46v-.45a23.72 23.72 0 0 1 23.73-23.7h4.48a23.78 23.78 0 0 1 23.74 23.7v.45Z" fill="#181B0C"/><path d="M144.37 60.54a4.1 4.1 0 0 1-.71-.06l-23.26-4.1v-38.4H146l-.63.74c-8.82 10.27-2.18 26.93 2.57 35.95a3.96 3.96 0 0 1-.32 4.21 4.02 4.02 0 0 1-3.25 1.66Z" fill="#181B0C"/><path d="m336.73 261.86-203.85 72a20.2 20.2 0 0 1-25.72-12.27l-35.02-98.94a20.14 20.14 0 0 1 12.28-25.7l203.85-72A20.2 20.2 0 0 1 314 137.23l35.02 98.94a20.14 20.14 0 0 1-12.28 25.7Z" fill="#fff"/><path d="m349.01 236.17.19.52a19.2 19.2 0 0 1-11.74 24.54L132.6 333.59a19.27 19.27 0 0 1-24.56-11.72l-.18-.52L349 236.17Z" fill="#F2F2F2"/><path d="M120.16 219.93c-13.52 8.88-30.83 2.2-36.9-7.54l.98-.55c11.5-7.16 28.58-3.17 35.92 8.09Z" fill="#00D7AD"/><path d="M289.48 245.12c-3.3 1.17-6.28 1.12-8.85-.16-5.8-2.88-8.52-11.41-10.7-18.27-.65-2-1.25-3.88-1.86-5.42v-.03a12.28 12.28 0 0 1 7.44-15.6l27.43-9.68c3.3-1.17 6.27-1.12 8.84.16 5.8 2.87 8.52 11.4 10.71 18.26.64 2 1.24 3.9 1.86 5.44a12.28 12.28 0 0 1-7.45 15.62l-27.42 9.68Zm-20.27-24.3c.63 1.59 1.23 3.49 1.88 5.5 2.11 6.64 4.75 14.9 10.09 17.55 2.29 1.14 4.87 1.17 7.9.1l27.4-9.68a11.07 11.07 0 0 0 6.72-14.05 88.25 88.25 0 0 1-1.87-5.48c-2.12-6.64-4.76-14.9-10.1-17.55-2.29-1.14-4.87-1.17-7.89-.1l-27.42 9.68a11.06 11.06 0 0 0-6.7 14.04Zm-154.74 2.3a27.29 27.29 0 0 1-14.98.83c-7.26-1.6-13.85-5.93-17.2-11.3l-.33-.55 1.5-.85c11.68-7.27 29.19-3.33 36.75 8.27l.33.51-.5.33a25.66 25.66 0 0 1-5.57 2.76Zm-30.8-10.59c3.28 4.86 9.38 8.75 16.08 10.22a25.49 25.49 0 0 0 19.1-3.07c-7.4-10.69-23.78-14.23-34.75-7.39l-.42.24Zm37.96 81.61a10.14 10.14 0 0 1-10.3-1.71 12.66 12.66 0 0 1-4.15-11.71 10.16 10.16 0 0 1 7.14-7.88l36.53-12.9a10.2 10.2 0 0 1 10.51 1.65 12.67 12.67 0 0 1 4.15 11.7c-.73 3.77-3.27 6.55-7.15 7.88l-36.54 12.9a6.2 6.2 0 0 1-.19.07Zm-7.08-20.09a8.98 8.98 0 0 0-6.17 6.9 11.4 11.4 0 0 0 3.73 10.55 9 9 0 0 0 9.3 1.42l36.55-12.9a9 9 0 0 0 6.35-6.95 11.4 11.4 0 0 0-3.74-10.55 9.03 9.03 0 0 0-9.3-1.44L114.72 274l-.17.06Z" fill="#0C3B34"/><path d="m289.73 216.01-11.52 4.07a3.06 3.06 0 0 1-3.77-4.19 3 3 0 0 1 1.74-1.56l11.51-4.07a3.05 3.05 0 0 1 2.04 5.75Zm3.26 9.21-11.52 4.06a3.06 3.06 0 0 1-2.04-5.75l11.52-4.07a3.06 3.06 0 0 1 2.04 5.76Zm3.25 9.2-11.51 4.07a3.05 3.05 0 1 1-2.04-5.75l11.52-4.07a3.07 3.07 0 0 1 3.9 1.86 3.04 3.04 0 0 1-1.87 3.9Zm13.64-25.52-11.51 4.06a3.03 3.03 0 0 1-3.3-.83 3.04 3.04 0 0 1 1.26-4.92l11.52-4.07a3.06 3.06 0 0 1 2.03 5.76Zm3.26 9.2-11.52 4.07a3.05 3.05 0 0 1-2.03-5.76l11.51-4.06a3.05 3.05 0 0 1 2.04 5.75Zm3.26 9.2-11.52 4.07a3.06 3.06 0 0 1-2.03-5.75l11.51-4.07a3.03 3.03 0 0 1 3.29.84 3.06 3.06 0 0 1-1.25 4.91Z" fill="#00D7AD"/><path d="M321.62 158.76 80.45 243.94l.4 1.15 241.17-85.18-.4-1.15Z" fill="#0C3B34"/><path d="m336.73 261.86-203.85 72a20.2 20.2 0 0 1-25.72-12.27l-35.02-98.94a20.14 20.14 0 0 1 12.28-25.7l203.85-72A20.2 20.2 0 0 1 314 137.23l35.02 98.94a20.14 20.14 0 0 1-12.28 25.7ZM84.83 198.1a18.95 18.95 0 0 0-11.54 24.14l35.02 98.94a18.95 18.95 0 0 0 24.16 11.53l203.85-72a18.95 18.95 0 0 0 11.54-24.13l-35.02-98.95a18.94 18.94 0 0 0-24.16-11.52l-203.85 72Z" fill="#0C3B34"/><path d="M606.18 384H.82a.82.82 0 1 1 0-1.64h605.36a.82.82 0 1 1 0 1.64Z" fill="#CBCBCB"/></g><defs><clipPath id="a"><path fill="#fff" d="M0 0h607v384H0z"/></clipPath></defs></svg>