<svg width="487" height="211" fill="none" xmlns="http://www.w3.org/2000/svg"><g clip-path="url(#a)"><path d="M47.71 87.04h285.73a4.58 4.58 0 1 1 0 9.14h-8.1v109.3a4.57 4.57 0 0 1-9.14 0l-.07-109.3H86.8l-21.14 109.3a4.57 4.57 0 0 1-9.15 0l-1.33-109.3H47.7a4.58 4.58 0 1 1 0-9.14Z" fill="#CCC"/><path d="M283.91 66.69v19.34h48.53a9.7 9.7 0 0 0 9.42-13.06 9.66 9.66 0 0 0-9.42-6.28h-48.53Z" fill="#F2F2F2"/><path d="M282.72 85.88a.74.74 0 0 0 .74.75h49.85a10.21 10.21 0 0 0 10.2-10.2 10.19 10.19 0 0 0-10.2-10.19h-49.85a.74.74 0 0 0-.69.46.75.75 0 0 0 0 .57.76.76 0 0 0 .4.4c.1.04.2.06.3.06h49.84a8.72 8.72 0 0 1 6.15 14.86 8.72 8.72 0 0 1-6.15 2.55h-49.85a.74.74 0 0 0-.74.74Z" fill="#00BAA8"/><path d="M283.91 71.15h52.15c.04 0 .08-.01.11-.04a.15.15 0 0 0 .04-.1.15.15 0 0 0-.04-.11.15.15 0 0 0-.1-.05H283.9a.15.15 0 0 0-.1.26c.02.02.06.04.1.04Zm0 3.57h52.15c.04 0 .08-.01.11-.04a.15.15 0 0 0 .04-.1.15.15 0 0 0-.04-.11.15.15 0 0 0-.1-.05H283.9a.15.15 0 0 0-.1.26c.02.03.06.04.1.04Zm0 3.58h52.15a.15.15 0 0 0 .15-.15.15.15 0 0 0-.04-.1.15.15 0 0 0-.1-.05H283.9a.15.15 0 0 0-.15.15c0 .03.02.07.05.1.02.03.06.04.1.04Zm0 3.57h52.15a.15.15 0 0 0 .15-.15.15.15 0 0 0-.04-.1.15.15 0 0 0-.1-.05H283.9a.15.15 0 0 0-.1.25c.02.03.06.05.1.05Z" fill="#CCC"/><path d="M293.06 46.3v19.35h48.53a9.7 9.7 0 0 0 10.02-9.34 9.67 9.67 0 0 0-10.02-10h-48.53Z" fill="#F2F2F2"/><path d="M291.87 65.5a.74.74 0 0 0 .74.75h49.85a10.21 10.21 0 0 0 10.2-10.2 10.19 10.19 0 0 0-10.2-10.2H292.6a.74.74 0 1 0 0 1.5h49.85a8.72 8.72 0 0 1 6.16 14.86 8.72 8.72 0 0 1-6.16 2.55H292.6a.75.75 0 0 0-.74.74Z" fill="#3F3D56"/><path d="M293.06 50.77h52.15a.15.15 0 0 0 .11-.26.15.15 0 0 0-.1-.04h-52.16a.15.15 0 0 0-.1.04.15.15 0 0 0-.05.1c0 .05.02.09.04.11.03.03.07.05.11.05Zm0 3.57h52.15a.15.15 0 0 0 .11-.25.15.15 0 0 0-.1-.05h-52.16a.15.15 0 0 0-.1.05.15.15 0 0 0-.05.1c0 .04.02.08.04.1.03.03.07.05.11.05Zm0 3.57h52.15c.04 0 .08-.01.1-.04a.15.15 0 0 0 .05-.1.15.15 0 0 0-.14-.16h-52.16a.15.15 0 0 0-.15.15c0 .04.02.08.04.1.03.03.07.05.11.05Zm0 3.57h52.15c.04 0 .08-.01.1-.04a.15.15 0 0 0 .05-.1.15.15 0 0 0-.14-.15h-52.16a.15.15 0 0 0-.15.14c0 .04.02.08.04.1.03.04.07.05.11.05ZM236.6 155.5v-16.86a2.81 2.81 0 0 1 2.82-2.81h64.04a2.82 2.82 0 0 1 2.81 2.8v16.88H236.6Zm0 6.33h69.67v21.8H236.6v-21.8Zm69.67 28.12v16.87a2.8 2.8 0 0 1-2.81 2.8h-64.04a2.82 2.82 0 0 1-2.82-2.8v-16.87h69.67Z" fill="#CCC"/><path d="M271.79 148.48a2.11 2.11 0 1 1 0-4.22 2.11 2.11 0 0 1 0 4.22Zm0 28.12a2.11 2.11 0 1 1 0-4.23 2.11 2.11 0 0 1 0 4.22Zm-.11 27.51a2.11 2.11 0 1 1 0-4.22 2.11 2.11 0 0 1 0 4.22Z" fill="#fff"/><path d="M244.5 116.6v19.34h48.53a9.7 9.7 0 0 0 10.02-9.34 9.68 9.68 0 0 0-10.02-10H244.5Z" fill="#F2F2F2"/><path d="M243.3 135.79a.74.74 0 0 0 .75.74h49.85a10.22 10.22 0 0 0 10.2-10.19 10.18 10.18 0 0 0-10.2-10.2h-49.85a.76.76 0 0 0-.53.22.76.76 0 0 0-.22.53.76.76 0 0 0 .22.53.75.75 0 0 0 .53.21h49.85a8.72 8.72 0 0 1 0 17.41h-49.85a.75.75 0 0 0-.74.75Z" fill="#3F3D56"/><path d="M244.5 121.06h52.15a.15.15 0 0 0 .15-.15.15.15 0 0 0-.04-.1.14.14 0 0 0-.1-.05H244.5a.15.15 0 0 0-.1.04.15.15 0 0 0-.05.1c0 .05.02.08.05.11.02.03.06.05.1.05Zm0 3.57h52.15a.15.15 0 0 0 .15-.15.15.15 0 0 0-.04-.1.15.15 0 0 0-.1-.05H244.5a.15.15 0 0 0-.1.04.15.15 0 0 0-.05.1c0 .05.02.09.05.11.02.03.06.05.1.05Zm0 3.57h52.15c.04 0 .08-.02.1-.04a.15.15 0 0 0 .05-.1.15.15 0 0 0-.15-.15H244.5a.15.15 0 0 0-.15.14c0 .04.02.08.05.1.02.03.06.05.1.05Zm0 3.57h52.15c.04 0 .08-.01.1-.04a.15.15 0 0 0 .05-.1.15.15 0 0 0-.15-.15H244.5a.15.15 0 0 0-.15.15.15.15 0 0 0 .15.14Z" fill="#CCC"/><path d="M301.5 39.85h22.11c.21 0 .42.05.6.14l5.59 2.79a1.02 1.02 0 0 1 0 1.87l-5.58 2.79c-.2.1-.4.14-.6.14H301.5a1.16 1.16 0 0 1-1.23-1.08v-5.58a1.16 1.16 0 0 1 1.23-1.07Z" fill="#3F3D56"/><path d="M300.27 40.92v5.58a1.16 1.16 0 0 0 1.23 1.08h4.4v-7.73h-4.4a1.16 1.16 0 0 0-1.23 1.07Z" fill="#00D7AD"/><path d="M434.07 149.2a17.59 17.59 0 0 1-16.97-2.98c-5.95-4.98-7.81-13.2-9.33-20.8l-4.48-22.48 9.39 6.46c6.75 4.64 13.66 9.44 18.33 16.16 4.68 6.73 6.72 15.91 2.96 23.19" fill="#E6E6E6"/><path d="M433.26 176.42c.95-6.91 1.93-13.91 1.27-20.9-.6-6.2-2.5-12.27-6.35-17.24a28.68 28.68 0 0 0-7.37-6.67c-.73-.46-1.41.7-.68 1.17a27.27 27.27 0 0 1 10.8 13c2.35 5.98 2.73 12.49 2.32 18.83a158.4 158.4 0 0 1-1.29 11.45.7.7 0 0 0 .48.83.68.68 0 0 0 .82-.47Z" fill="#F2F2F2"/><path d="M424.11 164.19a12.92 12.92 0 0 1-11.27 5.8c-5.7-.26-10.46-4.24-14.74-8.02l-12.67-11.16 8.38-.4c6.03-.3 12.21-.56 17.95 1.3 5.75 1.85 11.04 6.32 12.1 12.25" fill="#E6E6E6"/><path d="M435.95 180.4c-4.57-8.09-9.88-17.07-19.36-19.94-2.64-.8-5.4-1.08-8.14-.84-.87.07-.65 1.4.21 1.33 4.6-.38 9.19.83 13 3.43 3.66 2.5 6.51 5.96 8.93 9.63 1.48 2.25 2.8 4.6 4.13 6.94.42.74 1.66.2 1.23-.55Z" fill="#F2F2F2"/><path d="M443.28 188.9a9.77 9.77 0 0 0-6-8.19v-4.67h-7.85v4.82a9.8 9.8 0 0 0-5.68 8.04l-1.84 21.43h23.21l-1.84-21.43Z" fill="#F2F2F2"/><path d="m176.38 86.6 2.34-.98 1.6-11.69h21.32l1.74 11.64 2.09 1.05a.5.5 0 0 1 .26.55.5.5 0 0 1-.48.39h-28.68a.5.5 0 0 1-.48-.4.5.5 0 0 1 .3-.55Z" fill="#E6E6E6"/><path d="M138.48 75.49h104.77a2.08 2.08 0 0 0 2.07-2.07V58.66H136.4v14.76a2.07 2.07 0 0 0 2.07 2.07Z" fill="#CCC"/><path d="M136.3 65.63h109.1V2.5a2.5 2.5 0 0 0-2.5-2.5H138.8a2.5 2.5 0 0 0-2.51 2.5v63.13Z" fill="#3F3D56"/><path d="M142.82 61.05h96.08a1.93 1.93 0 0 0 1.93-1.92V6.5a1.93 1.93 0 0 0-1.93-1.93h-96.08a1.93 1.93 0 0 0-1.93 1.93v52.62a1.93 1.93 0 0 0 1.93 1.92Z" fill="#fff"/><path d="M168.12 79.62a5.79 5.79 0 0 0-8.78 1.13l-13-2.31-3.33 7.54 18.4 3a5.81 5.81 0 0 0 6.71-9.36Z" fill="#FFB6B6"/><path d="m156.09 89.25-13.55-.17-1.71-.02-27.57-.35s-7.48-7.13-14-14.47l.91-6.6c.9-6.48 4.1-12.41 9.05-16.7 9.34 6.23 14.75 18.56 14.75 18.56l17.1 4.09 1.7.4 10.62 2.54 2.7 12.72Z" fill="#00BAA8"/><path d="M86.73 129.82h25.3c0 1.08 27.64 1.96 27.64 1.96a9.73 9.73 0 0 1 3.94 7.84v1.57a9.8 9.8 0 0 1-9.82 9.8H86.73a9.83 9.83 0 0 1-9.81-9.8v-1.57a9.8 9.8 0 0 1 9.81-9.8Z" fill="#E4E4E4"/><path d="M105.12 150.6h10.21v58.85h-10.2V150.6Z" fill="#E4E4E4"/><path d="M144.39 209.1c0 1.1-15.47.42-34.55.42-19.09 0-34.56.68-34.56-.43 0-1.1 15.47-9.83 34.55-9.83 19.09 0 34.56 8.73 34.56 9.83Z" fill="#E4E4E4"/><path d="M151.24 202.37h7.6l3.62-29.27h-11.22v29.27Z" fill="#FFB6B6"/><path d="M149.3 209.72h24.5v-.3a9.52 9.52 0 0 0-9.53-9.53H149.3v9.84Z" fill="#181B0C"/><path d="M173.7 202.37h7.6l3.6-29.27h-11.2v29.27Z" fill="#FFB6B6"/><path d="M171.76 209.72h24.5v-.3a9.52 9.52 0 0 0-9.54-9.53h-14.96v9.84Z" fill="#181B0C"/><path d="M105.64 33.87a13.2 13.2 0 1 1-.01-26.4 13.2 13.2 0 0 1 .01 26.4Z" fill="#FFB6B6"/><path d="M84.26 111.08s-4.43 23.4 12.43 26.38c16.87 2.98 41.21 5.08 41.21 5.08l10.94 50.94 14.68-1.3s-1.95-61.33-6.76-66.13c-4.8-4.8-35.16-19.16-35.16-19.16l-37.34 4.19Z" fill="#181B0C"/><path d="m117.2 101.26 7.38 7.4s53.25 8.56 55.3 20.85c3.1 18.54 6.77 58.88 6.77 58.88l-16.01-1.2-6.28-45.85-25.62-5.82-29.15-15.87 7.6-18.39ZM92.93 12.8c1.3-2.45 2.96-7.35 5.6-8.26a21.6 21.6 0 0 1 4.5-.96l4.47 1.72-2.43-1.89 1.42-.07 3.02 1.16-1.55-1.2c2.82-.03 5.72.26 7.9 1.97 1.86 1.46 3.7 6.99 4 9.33.32 2.24.2 4.52-.33 6.72l-.76.73a9.43 9.43 0 0 1-.6-1.91 9.02 9.02 0 0 0-4.33-5.86l-.04-.03c-1.28-.72-2.84-.68-4.31-.63l-6.98.25c-1.68.06-3.5.17-4.8 1.22a7.89 7.89 0 0 0-1.92 2.77c-.65 1.32-1.92 6.26-1.92 6.26s-.72-.93-1.07-.23a24.02 24.02 0 0 1-1-5.58 11 11 0 0 1 1.13-5.5Z" fill="#181B0C"/><path d="M46.73 26.47a5.78 5.78 0 0 1 5.23 7.14l10.62 7.83-3.19 7.6-14.84-11.26a5.8 5.8 0 0 1 2.18-11.3Z" fill="#FFB6B6"/><path d="m48.44 42.45 26.63 29.54s12.73-4.07 22.58-8.49l4.43-13.57a26.96 26.96 0 0 0 1.3-9.77c-13.66-3.63-29.54 9.88-29.54 9.88L53.9 34.44l-5.46 8.01Z" fill="#00BAA8"/><path d="M110.58 113.26c4.75-1.64 9.66-3.34 14.96-3.97l.23-.03-.07-.22c-5.48-19.24-4.1-31.54-1.42-50.04a18.66 18.66 0 0 0-10.72-19.62l-.03-.01-15.14-.96h-.03l-11 3.23a7.55 7.55 0 0 0-5.41 7.37c.12 6.08-.14 12.86-.4 20.05-.6 16.12-1.23 32.79 2.3 43.6l.02.06.04.03a17.97 17.97 0 0 0 11.48 4.03c4.94 0 9.98-1.74 15.19-3.53Z" fill="#00BAA8"/><path d="M.7 211h485.6a.7.7 0 1 0 0-1.4H.7a.7.7 0 1 0 0 1.4Z" fill="#CCC"/></g><defs><clipPath id="a"><path fill="#fff" transform="matrix(-1 0 0 1 487 0)" d="M0 0h487v211H0z"/></clipPath></defs></svg>