<svg data-name="Layer 1" xmlns="http://www.w3.org/2000/svg" width="722.73" height="494"><path d="M251.11 473.2a2.8 2.8 0 0 1-2.03-4.87l.19-.76-.08-.19a7.54 7.54 0 0 0-13.9.06c-2.28 5.47-5.17 10.96-5.89 16.75a22.3 22.3 0 0 0 .4 7.67 89.42 89.42 0 0 1-8.14-37.13 86.3 86.3 0 0 1 .54-9.63q.44-3.93 1.23-7.8a90.46 90.46 0 0 1 17.93-38.35 24.07 24.07 0 0 0 10.02-10.38 18.36 18.36 0 0 0 1.67-5.02c-.5.06-1.84-7.36-1.47-7.82-.68-1.03-1.9-1.54-2.64-2.54-3.7-5-8.77-4.13-11.43 2.66-5.67 2.87-5.72 7.61-2.24 12.17 2.21 2.9 2.51 6.83 4.46 9.94l-.61.76a91.04 91.04 0 0 0-9.5 15.06 37.85 37.85 0 0 0-2.26-17.58c-2.17-5.22-6.22-9.61-9.79-14.12-4.29-5.42-13.08-3.06-13.83 3.81l-.03.2q.8.45 1.56.95a3.8 3.8 0 0 1-1.53 6.93l-.08.01a37.89 37.89 0 0 0 1 5.67c-4.58 17.7 5.3 24.16 19.42 24.45l.93.47a92.93 92.93 0 0 0-5 23.54 88.14 88.14 0 0 0 .06 14.23l-.02-.17a23.29 23.29 0 0 0-7.95-13.44c-6.12-5.03-14.77-6.88-21.37-10.92a4.37 4.37 0 0 0-6.7 4.25l.04.18a25.58 25.58 0 0 1 2.86 1.38q.8.45 1.56.95a3.8 3.8 0 0 1-1.53 6.93l-.08.01-.16.03a37.92 37.92 0 0 0 6.97 10.92c2.87 15.46 15.17 16.93 28.32 12.43a92.9 92.9 0 0 0 6.25 18.21h22.3l.22-.75a25.33 25.33 0 0 1-6.17-.37l4.96-6.1a1.38 1.38 0 0 0 .1-.12l2.53-3.1a37.1 37.1 0 0 0-1.09-9.46Z" fill="#f2f2f2"/><path fill="#a0616a" d="m79.64 439.48 6.15 6.5 28.56-21.16-9.07-9.59-25.64 24.25z"/><path d="m89.72 443.08-6.96-6.54-1.71-1.6-17.73 14.17 4.61 4.87 5.43-3.48-2.5 6.58 12.23 12.93a4 4 0 0 0 6.86-3.36l-2.64-17.07 4.65-4.4Zm125.1-240.3-1.95 21.29s-3.4 16.04-1.04 14.74-1.87 4.55-.76 9.63-9.5 42.91-4.7 38.99-2.78 23.16-7.58 36.52a1445.64 1445.64 0 0 1-5.4 14.97c-1.98 5.4-3.95 10.72-5.84 15.74l-.79 2.09c0 .02 0 .04-.02.04-6.22 16.37-11.55 29.25-13.68 31.38-1.1 1.11-18.72 13.83-36.47 26.57-18.63 13.37-37.4 26.77-37.4 26.77l-17.55-18.4 1.21-.36c1.46-.42 4.16-1.21 7.7-2.26 14.76-4.35-3.99-11.12 9.41-15.96 3.78-1.36 6.3-2.42 6.87-2.98 3.33-3.25 7.8-11 9.91-7.75s11.68-20.9 14.44-23.29c1.48-1.29 6.31-7.32 10.45-12.62 3.56-4.56 6.62-8.59 6.62-8.59l.15-5.6.52-20.92v-.01l.21-8.8.15-6.24c.13-5.84.22-10.26.22-11.36 0-3.61 0-.8 2.85-2.98a12.89 12.89 0 0 0 1.21-1.08 14.6 14.6 0 0 0 1.68-1.79c.21-.45-1.1.16-2.8-.18a5.08 5.08 0 0 1-2.46-1.26c-3.58-3.22.28-13.12.28-13.12-8.14-16.28-7.55-29.63-3.74-39.92a51.2 51.2 0 0 1 13.21-19.35 47.8 47.8 0 0 1 7.23-5.67l.25-1.35 2.75-14.89a33.18 33.18 0 0 1 4.55-2.07 31.58 31.58 0 0 1 15.26-1.52 45.55 45.55 0 0 1 14.61 4.73 54.07 54.07 0 0 1 10.44 6.86Z" fill="#2f2e41"/><path fill="#a0616a" d="m138.02 472.65 8.91.83 7.51-34.74-13.15-1.23-3.27 35.14z"/><path d="m163.68 486.27-13.24-11.09.6-6.38-3.08-.1-9.54-.31-2.35-.08-3.97 22.34 6.7.62 1.76-6.2 2.47 6.6 3.54.33 14.17 1.32.37.02a3.97 3.97 0 0 0 2.98-1.34 3.92 3.92 0 0 0 1.01-2.3 4 4 0 0 0-1.42-3.43Zm23.87-131.61c-3.39 18.45-17.74 61.71-26.42 87.03-3.95 11.57-6.7 19.4-6.7 19.4l-4.5-1.42h-.02l-7.6-2.4-2.78-.88-3.37-1.07s.4-20.66.43-40.58c.03-8.35 0-16.58-.17-23.1-.18-7.11-.49-12.2-1-13.21-2.1-4.14 1.42-4.58 5.15-5.62 3.74-1.05.82-2.63-.63-5.99-.98-2.24.95-5.23 2.32-6.93a16.71 16.71 0 0 1 1.21-1.37s-.66-.23-1.84-.63c3.56-4.56 6.62-8.59 6.62-8.59l.15-5.6.52-20.92v-.01l.21-8.8c5.72 4.4 11.28 8.7 16.32 12.68a.05.05 0 0 1 .02.04c12.11 9.57 21.2 17.25 22.48 19.69.58 1.1.38 4.04-.4 8.28Z" fill="#2f2e41"/><path d="M485.68 28.9a6.43 6.43 0 0 1 6.98 5.62 6.17 6.17 0 0 1 .02 1.02l20.63 8.8-.8 12.04-26.94-15.12a6.41 6.41 0 0 1-5.48-5.58 6.13 6.13 0 0 1 5.42-6.77l.17-.02Z" fill="#ffb6b6"/><path d="M625.98 103.19a18.9 18.9 0 0 0-2.79-6.53 16.9 16.9 0 0 0-1.2-1.62 264.5 264.5 0 0 0-7-8.04c-4.53-4.97-7.5-7.6-8.86-7.82-.66-.11-1.3-.19-1.94-.27-3.23-.4-5.57-.69-5.64-4.1a8.88 8.88 0 0 1 .1-1.46 17.85 17.85 0 0 1 .53-2.4 10.6 10.6 0 0 0 .31-1.36c.1-.59.06-1.03-.26-1.3-.4-.33-1.07-.28-2.33.22l-.67.28-.25.11-.52.24c-1.5.72-3.84.81-6.5.54-7.85-.8-18.47-4.76-18.6-4.81l-66.88-25.99-.62 1-1.47 2.38-.5.82-.59.94-2.53 4.08-1.28 2.06 21.6 16.29 2.35 1.77 2.02 1.53 41.24 31.11 15.38 10.15 3.43 2.26 14.62 9.64a18.86 18.86 0 0 0 26.4-5.76 18.9 18.9 0 0 0 2.45-13.96Z" fill="#e6e6e6"/><path fill="#ffb6b6" d="m164.92 166.79 1.87 17.38-1.1 22.8 50.48-6 4.75-34.18-6.05.06-49.95-.06z"/><path d="m207.86 110.65-19-15-9.98-.58-14.8 9.48-3.62 18.49-8.57 20.82 12.57 56.18s1.18 4.03-1.9 4.51-2.73 6.43-2.73 6.43.63 5.15-2.37 5.6-11 .46-4 9.46S215.83 201 215.83 201l8.04-42.2s15.6-20.94-1.2-32.94Z" fill="#e6e6e6"/><path d="M124.91 238.2a9.16 9.16 0 0 1 2.77-13.76l23.9-80.2 14.94 7.52-26.03 76.87a9.2 9.2 0 0 1-15.58 9.58Z" fill="#a0616a"/><path d="M167.52 103.8s-4.27-2.26-7.2 7.56c-2.34 7.87-21.32 54.71-21.56 66.1a7.2 7.2 0 0 0-5.7 6.74l23.47 3.14c4.1-3.46 5.18-8.13 3.6-9.51l5.09-13.92 21.26-44.28-15.85-14.24Z" fill="#e6e6e6"/><path d="M292.92 211.84a9.16 9.16 0 0 0-8.45-11.21L229.65 138l-11.63 13.88 56.71 58.06a9.2 9.2 0 0 0 18.19 1.9Z" fill="#a0616a"/><path d="M196.38 109.08s2.87-3.89 9.76 3.7c5.5 6.08 42.88 40.12 48.03 50.28a7.2 7.2 0 0 1 8.04 3.61l-19.8 12.99c-5.2-1.35-8.18-5.1-7.35-7.03l-10.61-10.35-38.32-30.73 8.13-19.69Z" fill="#e6e6e6"/><circle cx="400.83" cy="141" r="140" fill="#00baa8"/><path d="M394.2 190.55a34.2 34.2 0 0 1-48.36 0 34.2 34.2 0 0 1-4.62-42.62l-7.53 7.68a34.2 34.2 0 0 0 0 48.36 34.2 34.2 0 0 0 48.37 0l16.67-17.31.26-1.08ZM410.09 83.6a34.2 34.2 0 0 1 47.51 9 34.2 34.2 0 0 1-3.4 42.74l8.82-6.14a34.2 34.2 0 0 0 9.02-47.52 34.2 34.2 0 0 0-47.52-9.01l-19.6 13.9-.46 1Z" opacity=".2"/><path d="M357.88 218.27a37.2 37.2 0 0 1-26.3-63.5l31.56-32.21a37.2 37.2 0 0 1 52.63-.02 3 3 0 0 1-4.24 4.24 31.2 31.2 0 0 0-44.12 0c-4.64 16.34-14.66 27.56-31.57 32.2a31.2 31.2 0 1 0 44.1 44.15c-.69-6.7 1.27-13.01 16.63-17.27a3 3 0 1 1 4.32 4.16l-16.67 17.31a36.98 36.98 0 0 1-26.34 10.94Z" fill="#fff"/><path d="M409.13 172.7a36.96 36.96 0 0 1-26.3-10.9 3 3 0 0 1 4.24-4.23 31.2 31.2 0 0 0 44.12 0c4-24.09 20.3-27.49 34.47-34.47a31.2 31.2 0 0 0-44.13-44.12c-3.94 11.37-7.8 22.87-19.55 19.55a3 3 0 0 1-4.24-4.24l19.55-19.55a37.2 37.2 0 1 1 52.6 52.6l-34.46 34.47a36.96 36.96 0 0 1-26.3 10.9Z" fill="#fff"/><path d="M522.46 69.75a142.54 142.54 0 0 0-21.07-27.49 149.85 149.85 0 0 0-8.8-8.24c-2.08-1.78-4.2-3.5-6.38-5.16A140.29 140.29 0 0 0 400.82 0c-77.74 0-141 63.25-141 141a140.73 140.73 0 0 0 2.33 25.56.77.77 0 0 0 .02.14c.71 3.87 1.6 7.69 2.61 11.44a140.99 140.99 0 0 0 255.75 37.31q2.93-4.71 5.5-9.66a140.8 140.8 0 0 0-3.57-136.04ZM400.82 280a138.95 138.95 0 0 1-139-139c0-76.65 62.36-139 139-139a138.95 138.95 0 0 1 99.48 42.02 133.06 133.06 0 0 1 9.54 10.86 134.83 134.83 0 0 1 8.25 11.57 138.93 138.93 0 0 1 16.2 113.41 136.56 136.56 0 0 1-9.73 24.42A139.47 139.47 0 0 1 400.82 280Z" fill="#3f3d56"/><path fill="#ffb6b6" d="m592.64 472.97-9.19-.08-4.07-36.28 13.56.12-.3 36.24z"/><path d="m595.07 468.73-2.4-.16-9.79-.67-3.15-.21-.06 6.57-14.68 9.96a4.11 4.11 0 0 0 2.28 7.5l18.27.16 3.2-6.48 1.17 6.52 6.9.06Z" fill="#2f2e41"/><path fill="#ffb6b6" d="m689.41 466.25-8.79 2.7-14.83-33.35 12.97-3.99 10.65 34.64z"/><path d="m690.45 461.48-2.34.57-9.53 2.31-3.07.75 1.93 6.29-10.99 13.92a4.12 4.12 0 0 0 3.23 6.66 4.15 4.15 0 0 0 1.2-.18l17.47-5.37 1.1-7.15 3.08 5.86 6.6-2.03Zm-116.3-293.56-17.54 50.97-.58 4.08c-4.42 4.2 1.13 5.58-.95 6.68s-3.48 4.21-.68 4.77 11.85 199.37 23.78 207.09 19.2 13.3 17 2c-.88-4.55.37-28.97 2.18-56.5.2-3.13 3.43-6.43.63-9.47s.34-5.03.52-7.54c2.52-35.96 5.42-71.46 5.42-71.46s18.6 63.86 23.43 58.91 2.91 7.23 4.39 10.87c1.23 3.04-4.03 9 3.7 9.1s25.9 62.16 27.73 62.09c3.65-.14 13.91.25 20-1 3.01-.62-10.34-47.61-21.5-88.2-.88-3.23-5.72-3.3-2.6-9.55s-12.38-46.68-11.05-48.55c3.52-4.96 4.87-7.12 1.39-7.44s-4.5 1.58-4.7-3.23-.78-16.69-.78-16.69-2.52-46.95-20.17-72.88l-1.5-15.42Z" fill="#2f2e41"/><path d="m617.97 70.6-23.26 3.3-1.4 16.85-11.48 17.95s-25.52 17.96-7.72 46.32c-6.78 24.44-13.5 47.87-19.93 63.49-5 31 39.8 33.97 91 23 0 0-.7-13.26-5.35-19.63s-2.12-7.76-2.12-7.76l-3.24-11.9c1.83-17.22-4.37-18.76-7.29-26.71l8.86-82.5Z" fill="#e6e6e6"/><path d="M506.3 214.79a6.43 6.43 0 0 1 7.13-5.44 6.17 6.17 0 0 1 1 .22l13.47-17.92 11.5 3.64-21.1 22.55a6.41 6.41 0 0 1-6.74 4 6.13 6.13 0 0 1-5.28-6.89l.02-.16Z" fill="#ffb6b6"/><path d="M625.98 103.19c-.33-.41-.69-.81-1.07-1.2a18.83 18.83 0 0 0-20.83-4.24c-.34.14-.68.3-1 .46-11.96 5.87-18.4 9.78-19.19 11.61-.27.62-.5 1.23-.73 1.82-.22.58-.43 1.13-.65 1.63-.92 2.14-1.98 3.47-4.68 2.87a10.8 10.8 0 0 1-2.57-.99c-.37-.18-.7-.37-1.03-.55-1.16-.64-2-1.1-2.57-.68-.55.41-.57 1.45-.07 3.86a8.05 8.05 0 0 1-.08 3.03 34.44 34.44 0 0 1-3.08 8.35 110.23 110.23 0 0 1-6.98 11.98l-23.79 33.92-1.6 2.29-1.77 2.51-14.04 20.02.83.85 3.48 3.55.77.79.7.72 1.81 1.85 1.7 1.73 37.93-30.9 4.23-3.45 7.58-6.18 15.53-12.65 29.4-27.2a18.7 18.7 0 0 0 6.04-13.35l.01-.5a18.69 18.69 0 0 0-4.28-11.95Z" fill="#e6e6e6"/><circle cx="604" cy="43.99" r="25.99" fill="#ffb6b6"/><path d="M638.45 80.03a41.04 41.04 0 0 1 6.83 16.7 17.25 17.25 0 0 1-9.42 2.72c-.11-.43-.23-.87-.36-1.3a37.5 37.5 0 0 0-4.27-9.6 22.6 22.6 0 0 1-1.28 9.48 16.65 16.65 0 0 0-5.58-1.44 10.15 10.15 0 0 0-4.54 1.07c-1.63-5.42-3.14-10.41-4.2-13.99-.04 8.97-13.18 16.79-27.52 15.66-.52-.33 4.68-15.07 4.17-15.41-1.15-.77-2.26-1.6-3.38-2.4 4.7-7.25 9.8-15.02 8.92-16.19.06 1.44-5.08 8.37-10.68 14.91-3.11-2.28 14.55-39.41 5.82-42.43-.14 1.32-2.07 1.32-4.42 1.04a23.95 23.95 0 0 0-2.73-6.13 14.41 14.41 0 0 1-.68 5.68 33.09 33.09 0 0 0-6.9.73 22.1 22.1 0 0 0-1.73-2.37 14.07 14.07 0 0 1-.08 2.74c-2.31.5-4.22 1.08-4.5 1.55-1.81-.66 1.28-3.66.15-5.21-2.88-3.89 1.39-9.55 4.1-13.56 5.54-8.23 17.73-11.08 26.36-6.14.39-1.34 2.38-2.23 4.94-2.83a13.4 13.4 0 0 1 3.3-.31c11 .2 26.29 9.28 26.89 20.27.04 1.1.13 2.3.2 3.57.78 12.3-.17 23.65 8.23 32.65 3.04 3.26 3.08 18.67 1.91 26.6-3.03-3.2-5.18-15.59-9.55-16.06Z" fill="#2f2e41"/><circle cx="352.18" cy="141.51" r="3" fill="#00baa8"/><circle cx="447.18" cy="139.51" r="3" fill="#00baa8"/><path d="M161.61 54.8c-2.28 5.68-8.72 16.86-9.6 22.96l.4-.38a27.54 27.54 0 0 0 2.55 3.64 17.69 17.69 0 0 1 6-4.13 21.17 21.17 0 0 0-2.1 8.12c2.42 7.62 13.66 4.23 20.25 3.4 6.57 7.52 15.32 9.48 26.77 5.16 3.2.33 6.8.53 9.04-1.37s.9-5.4 2.11-8.05c8.6-18.88.67-25.7-6.08-34.26-1.48-1.89-1.48-4.7-3.28-6.5-2.51-2.49-6.35-3.26-9.9-3.87a5.37 5.37 0 0 0 4.72-2.33 4.84 4.84 0 0 0-.06-5.06c-1.27-2.1-3.9-3.32-6.44-3.63a24.45 24.45 0 0 0-7.45.65 13.33 13.33 0 0 0-4.52 1.44 3.7 3.7 0 0 0-1.92 3.74 4.78 4.78 0 0 0 2.83 3.05 12.52 12.52 0 0 0 3.2.87 25.09 25.09 0 0 0-14.72 2.58c-5.67 3.03-9.5 8.28-11.8 13.97Z" fill="#2f2e41"/><circle cx="192.35" cy="66.38" r="20.29" fill="#a0616a"/><path d="M172.83 55.5c1.17 3.56 4.54 4.7 7.64 5.42.98.23 1.97.44 2.96.63.37-.46.76-.91 1.17-1.34a17.69 17.69 0 0 1 6-4.13 20.85 20.85 0 0 0-1.92 6.38q2.81.4 5.66.66a6.4 6.4 0 0 0 7.53-4.61c1.73 2.82 3.77 5.49 6.57 6.61a7.95 7.95 0 0 0 9.05-2.7 19.15 19.15 0 0 0 3.27-7.44c.8-3.15 1.24-6.78-.32-8.78-1.25-1.61-3.4-1.64-5.39-1.5a64.12 64.12 0 0 0-12.95 2.35l-.35.8c.72-4.36-.85-8.55-3.76-10.05-1.97-1-4.33-.83-6.63-.62a30.2 30.2 0 0 0-8.65 1.67 16.62 16.62 0 0 0-7.85 6.26c-2.03 3.1-3.05 7.32-2.03 10.4Z" fill="#2f2e41"/><path d="M201.76 36.54c-.2-.06.31.01.13.02a1.65 1.65 0 0 0 .27-.04c.02 0 .22-.07.08-.02a1.63 1.63 0 0 0 .78-.5 6.75 6.75 0 0 0 1.1-1.97 7.07 7.07 0 0 1 1.52-2.54 1.74 1.74 0 0 1 2.78.42 4.05 4.05 0 0 1-.25 2.81 8.72 8.72 0 0 1-1.28 2.49 7.98 7.98 0 0 1-3.67 2.69 8.35 8.35 0 0 1-5.24.15 1.27 1.27 0 0 1-.05-2.32l2.87-1.17a1.26 1.26 0 1 1 1 2.3l-2.86 1.17-.05-2.32a5 5 0 0 0 1.1.19 4.2 4.2 0 0 0 1.19-.05 5.21 5.21 0 0 0 1.1-.27 7.17 7.17 0 0 0 .66-.29l.24-.12.18-.1a7.08 7.08 0 0 0 1.04-.8 2.86 2.86 0 0 0 .31-.35 6.65 6.65 0 0 0 .46-.63 6.52 6.52 0 0 0 .66-1.48 6.61 6.61 0 0 0 .19-.66 2.72 2.72 0 0 1 .06-.36c.11-.29-.02.16.1.29l.53.39a.69.69 0 0 0 .6-.1q.09-.13-.05.05a4.1 4.1 0 0 0-.28.43 11.85 11.85 0 0 0-.52 1.09 11.94 11.94 0 0 1-1.19 2.24 4.04 4.04 0 0 1-4.42 1.7 1.27 1.27 0 0 1-.72-1.63 1.28 1.28 0 0 1 1.63-.71Z" fill="#2f2e41"/></svg>