<svg width="244" height="146" fill="none" xmlns="http://www.w3.org/2000/svg"><g clip-path="url(#a)"><path d="M112.52 28.13H52.33a1.12 1.12 0 0 1-1.11-1.11V12.15a1.1 1.1 0 0 1 1.11-1.1h60.2a1.12 1.12 0 0 1 1.1 1.1v14.87a1.1 1.1 0 0 1-1.1 1.1ZM52.33 11.49a.67.67 0 0 0-.67.66v14.87a.67.67 0 0 0 .67.67h60.2a.67.67 0 0 0 .66-.67V12.15a.67.67 0 0 0-.67-.66H52.33Z" fill="#0C3B34"/><path d="M61.68 23.54a4.53 4.53 0 1 0 .02-9.06 4.53 4.53 0 0 0-.02 9.06Z" fill="#00BAA8"/><path d="M72.17 16a.76.76 0 0 0-.76.76.75.75 0 0 0 .76.75h35.67a.76.76 0 0 0 .76-.75.75.75 0 0 0-.76-.76H72.17Zm0 4.52a.76.76 0 0 0-.76.76.75.75 0 0 0 .76.75h15.35a.76.76 0 0 0 .76-.75.75.75 0 0 0-.76-.76H72.17Z" fill="#E6E6E6"/><path d="M86.39 81.12H59.64A1.12 1.12 0 0 1 58.52 80V52.27a1.1 1.1 0 0 1 1.12-1.11h26.75a1.12 1.12 0 0 1 1.11 1.11v27.74a1.1 1.1 0 0 1-1.11 1.1ZM59.64 51.6a.67.67 0 0 0-.67.67v27.74a.67.67 0 0 0 .67.67h26.75a.67.67 0 0 0 .67-.67V52.27a.67.67 0 0 0-.67-.67H59.64Z" fill="#0C3B34"/><path d="M65.34 56.88a.76.76 0 0 0-.76.75.75.75 0 0 0 .76.76h15.35a.76.76 0 0 0 .76-.76.75.75 0 0 0-.76-.75H65.34Zm0 4.44a.76.76 0 0 0-.76.75.75.75 0 0 0 .76.76h15.35a.76.76 0 0 0 .76-.76.75.75 0 0 0-.76-.75H65.34Z" fill="#E6E6E6"/><path d="M73.01 75.4a4.78 4.78 0 0 1-4.67-5.67A4.74 4.74 0 0 1 72.08 66a4.78 4.78 0 0 1 5.7 4.66A4.74 4.74 0 0 1 73 75.4Z" fill="#00BAA8"/><path d="M51.56 46.39a37.74 37.74 0 0 1 42.28-2.77 48.36 48.36 0 0 1 7.4 5.49c2.34 2.05 4.61 4.19 7.07 6.12a39.74 39.74 0 0 0 26.87 8.58c.4-.03.4-.65 0-.63a39.11 39.11 0 0 1-25.49-7.67c-2.54-1.89-4.86-4.05-7.23-6.15a55.89 55.89 0 0 0-7.26-5.64 38.5 38.5 0 0 0-44.09 2.23c-.31.24.13.68.45.44Z" fill="#0C3B34"/><path d="M51.23 49.4a3.25 3.25 0 1 0 .01-6.5 3.25 3.25 0 0 0-.01 6.5Zm121.1 43.04a3.25 3.25 0 1 0 .02-6.5 3.25 3.25 0 0 0-.02 6.5Zm17.06-21.71h-53.12a1.12 1.12 0 0 1-1.12-1.1V42.1a1.11 1.11 0 0 1 1.12-1.11h53.12a1.12 1.12 0 0 1 1.11 1.1v27.52a1.11 1.11 0 0 1-1.11 1.11Zm-53.12-29.29a.67.67 0 0 0-.67.67v27.51a.67.67 0 0 0 .67.67h53.12a.67.67 0 0 0 .67-.67V42.11a.67.67 0 0 0-.67-.67h-53.12Z" fill="#0C3B34"/><path d="M145.18 55.26a4.53 4.53 0 1 0 .02-9.06 4.53 4.53 0 0 0-.02 9.06Z" fill="#00BAA8"/><path d="M155.66 47.73a.76.76 0 0 0-.7.46.75.75 0 0 0 .7 1.05h28.6a.76.76 0 0 0 .54-1.29.76.76 0 0 0-.54-.22h-28.6Zm0 4.52a.76.76 0 0 0-.7.47.75.75 0 0 0 .7 1.04h15.35a.76.76 0 0 0 .76-.76.75.75 0 0 0-.76-.75h-15.35Zm-13.96 7.23c-.58 0-1.05.34-1.05.75 0 .42.47.75 1.04.75h42.15c.58 0 1.04-.33 1.04-.75 0-.41-.46-.75-1.04-.75H141.7Zm0 4.52c-.58 0-1.05.34-1.05.75 0 .42.47.76 1.04.76h42.15c.58 0 1.04-.34 1.04-.76 0-.41-.46-.75-1.04-.75H141.7Z" fill="#E6E6E6"/><path d="M132 92.21c3-1.3 6.34-.16 9.17 1.03 1.45.61 2.89 1.27 4.4 1.76 1.26.4 2.56.7 3.88.91a27.91 27.91 0 0 0 15.66-2.18 26.02 26.02 0 0 0 7.39-5.02c.29-.29-.16-.73-.44-.45a25.03 25.03 0 0 1-6.5 4.57 27.29 27.29 0 0 1-15.49 2.55 25.12 25.12 0 0 1-3.89-.85 41.2 41.2 0 0 1-4.3-1.66c-2.84-1.22-6.01-2.4-9.15-1.57-.35.1-.7.23-1.05.37-.37.16-.05.7.32.54Z" fill="#0C3B34"/><path d="M130.84 99.86h-25.1l5.91-10.18a1.2 1.2 0 0 1 2.1 0l2.51 4.35 4.3-7.4a1.5 1.5 0 0 1 2.06-.55c.23.13.42.32.55.55l7.67 13.23Z" fill="#00BAA8"/><path d="M130.87 99.86H104.1a1.12 1.12 0 0 1-1.11-1.11V83.88a1.1 1.1 0 0 1 1.11-1.1h26.76a1.12 1.12 0 0 1 1.11 1.1v14.87a1.1 1.1 0 0 1-1.11 1.11ZM104.1 83.22a.67.67 0 0 0-.67.66v14.87a.67.67 0 0 0 .67.67h26.76a.67.67 0 0 0 .66-.67V83.88a.67.67 0 0 0-.67-.67H104.1Z" fill="#0C3B34"/><path d="m183.34 86.78-4.77 2.4c-1.7.87-3.35.72-3.98-1.07a3.12 3.12 0 0 1 2.4-4.12l4.53-.85 19.41-6.4 11.76-8.3 4.31 6.83-13.58 7.3-20.08 4.2Z" fill="#FFB8B8"/><path d="m239.04 154.09-4.46 1.81-21.28-27.85-6.7 32.7-4.45-.81c-2.86-28.19-5.2-56.93-2.33-70.53l16.52-.7 7.5 23.8 3.65 16.15 11.55 25.43Z" fill="#2F2E41"/><path d="M210.26 60.05c4.03 0 7.3-3.25 7.3-7.27a7.28 7.28 0 0 0-7.3-7.26 7.28 7.28 0 0 0-7.3 7.26 7.28 7.28 0 0 0 7.3 7.27Z" fill="#FFB8B8"/><path d="m219.18 68.12-9.53-2.02-1.22-7.87 6.7-1.41 4.05 11.3Z" fill="#FFB8B8"/><path d="M216.54 89.71h-17.03l3.84-9.59c-.28-3.3 1.13-5.73 3.14-7.84l2.55-6.38c4.12-2.7 7.23-2.5 10.54 1 3.92 5.54 1.2 13.86-3.04 22.81Z" fill="#00BAA8"/><path d="m208.84 110.1-.49 5.3c-.17 1.89-1.17 3.2-3.03 2.77a3.15 3.15 0 0 1-2.23-4.21l1.7-4.27 4.86-19.78-.81-14.32h8.1l-1 15.33-7.1 19.17Z" fill="#FFB8B8"/><path d="M217.55 75.99h-9.32l.65-6.06a4.2 4.2 0 0 1 4-4.02 4.24 4.24 0 0 1 4.44 4.03l.23 6.05Z" fill="#00BAA8"/><path d="M219.29 45.31a2.74 2.74 0 1 0 0-5.47 2.74 2.74 0 0 0 0 5.47Z" fill="#2F2E41"/><path d="M216.46 41.91a2.72 2.72 0 0 1 2.74-2.55l-.17-.02a2.75 2.75 0 0 0-2.9 2.55 2.72 2.72 0 0 0 2.55 2.9h.17a2.74 2.74 0 0 1-2.39-2.88Z" fill="#2F2E41"/><path d="M216.45 43.08c-2.45-2.02-9.47.55-9.92 1.9-3.3.45-5.81 2.38-5.81 5.8 1.97.8 4.2.7 6.62 0 3.85 3.12 4.12 7.05 1.78 11.57l2.88.05 3.57-5.2.17 5.28 6.61-.13v-7.57c.02-2.5-.56-5-1.7-7.24-1.02-1.99-2.62-3.15-4.2-4.46Z" fill="#2F2E41"/><path d="M210.3 56.44c.71 0 1.3-.82 1.3-1.83 0-1.01-.59-1.83-1.3-1.83-.73 0-1.32.82-1.32 1.83 0 1 .59 1.83 1.31 1.83Z" fill="#FFB8B8"/><path d="M45.27 56.93s.79-13.6 4.89-10.51-1.8 11.77-1.8 11.77l-3.09-1.26ZM30.02 97.29s9.1 10.17 4.01 10.87c-5.1.7-7.1-9.59-7.1-9.59l3.1-1.28Z" fill="#FFB9B9"/><path d="M18.14 49.12a6 6 0 0 1 4.41 4.94l2.9 20.52 4.06 16.37s2.03 1.82 1.22 2.83c-.81 1.01 1.01 5.26 1.01 5.26l-5.07 1.61s-.61-4.24-1.63-4.44c-.89-.18-10.87-26.74-13.28-33.17l-.52-1.4s.4-13.53 6.9-12.52Z" fill="#00D7AD"/><path d="m5.24 93.97 2.92 35.2s.1 21.05 3.21 25.13c3.12 4.07 3.22 6.1 3.22 6.1l6.43-3.29s-3.32-5.5-2.63-6.34c.42-.53.72-1.15.87-1.8l-1.75-21.73 3.31-37.82-15.58 4.55Z" fill="#2F2E41"/><path d="m29.98 94.07 1.56 32.4s-14.22 29.28-15.78 30.06a3.91 3.91 0 0 0-1.95 2.33l-8.57-2.14 3.9-6.2 8.56-20.76s1.37-.58 1.76-2.52c.39-1.94 1.17-1.94-.78-2.33-1.95-.39-1.95-2.33-1.95-2.33L10.3 93.1l19.68.97Z" fill="#2F2E41"/><path d="M30.66 36.74a7.79 7.79 0 0 0-15.38-2.49 7.79 7.79 0 0 0 15.38 2.49Z" fill="#FFB9B9"/><path d="M16.05 35.98s-.59 9.89-1.37 10.86c-.77.97 8.19.78 8.19.78s-.59-8.35 0-9.12c.58-.78-6.82-2.52-6.82-2.52Z" fill="#FFB9B9"/><path d="M30.56 96.2s-22.01-1.93-26.1 0c0 0 1.5-5.56 1.11-6.14-.28-.42.5-16.26.26-25.4-.14-5.16-1.34-10.2 2.14-14.02 1.18-1.3 2.5-2.4 3.89-2.93 0 0-.39-3.68 1.56-3.88 0 0 7.4-.77 10.13 1.56.87.73 1.42 2.99 1.48 4.93-1.35 6.6-.88 13.93.36 21.54l.25 1.45c1.3 7.54 3.3 15.32 4.92 22.9Z" fill="#00D7AD"/><path d="M18.9 37.78c.65-.04 1.3.18 1.95.27a4.95 4.95 0 0 0 5.3-3.68c.04-.3.13-.6.27-.88.36-.58 1.18-.7 1.85-.56.68.13 1.32.45 2.01.49 1.06.05 2.09-.6 2.65-1.5.54-.93.77-2 .65-3.06l-.5.53a2.5 2.5 0 0 1-.24-1.4 1.64 1.64 0 0 0-1.55.4c-.44.04-.1-.83-.44-1.14a.78.78 0 0 0-.54-.1c-.96.01-1.73-.72-2.49-1.3a10.58 10.58 0 0 0-4.46-2.03 5.9 5.9 0 0 0-3.25.16c-.83.37-1.57.9-2.2 1.55a13.39 13.39 0 0 0-3.69 5.45 9.14 9.14 0 0 0-.04 5.32c.27.9 1.08 4 2.26 4.07 1.5.1.6-2.48 2.45-2.6Z" fill="#2F2E41"/><path d="m22.12 50.07 2.8.3s2.73 5.29 2.53 6.4c-.2 1.1-.63.43.6 2.2 1.24 1.76 4.74 6.33 5.17 7 .43.67 12.25-8.3 11.52-11 0 0 3.73 2.67 5.33 3.02 0 0-12.18 15.9-13.88 17.94-1.7 2.03-3.06 1.62-5.4.41-2.32-1.2-14.12-13.24-14.12-13.24l5.45-13.03Z" fill="#00D7AD"/><path opacity=".1" d="m25.64 73.31-9.7-9.66 2.45-.8 7 9 .25 1.46Z" fill="#181B0C"/></g><defs><clipPath id="a"><path fill="#fff" d="M0 0h244v146H0z"/></clipPath></defs></svg>