<svg width="218" height="141" fill="none" xmlns="http://www.w3.org/2000/svg"><g clip-path="url(#a)"><path d="M6.9 108.22c1.09-11 7.62-21.98 18-25.82a50.8 50.8 0 0 0 .92 34.95c1.73 4.3 4.1 8.9 2.7 13.33-.88 2.75-3.13 4.9-5.67 6.26-2.55 1.38-5.4 2.07-8.2 2.75l-.54.48c-4.75-9.99-8.28-20.95-7.2-31.95Z" fill="#0C3B34"/><path d="M25.02 82.6a43.47 43.47 0 0 0-10.2 24.77 18.7 18.7 0 0 0 .36 5.86 10.75 10.75 0 0 0 2.81 4.92c1.24 1.29 2.66 2.47 3.57 4.04a6.57 6.57 0 0 1 .46 5.36c-.7 2.2-2.16 4.02-3.65 5.75-1.65 1.92-3.4 3.89-4.05 6.4-.08.3-.55.16-.47-.15 1.15-4.36 5.29-6.92 7.2-10.87.88-1.84 1.22-3.96.3-5.86-.82-1.66-2.28-2.87-3.55-4.17a11.47 11.47 0 0 1-2.93-4.7 17.28 17.28 0 0 1-.59-5.83 42.13 42.13 0 0 1 2.76-12.9 44.27 44.27 0 0 1 7.65-12.98c.2-.23.53.12.33.36Z" fill="#fff"/><path d="M14.87 104.42a6.55 6.55 0 0 1-5.16-6.7.24.24 0 0 1 .42-.17c.04.05.07.11.07.17a6.04 6.04 0 0 0 4.81 6.23c.3.07.16.53-.14.47Zm2.4 13.15a12.59 12.59 0 0 0 5.45-7.39c.08-.3.55-.16.47.14A13.1 13.1 0 0 1 17.5 118c-.27.17-.5-.26-.24-.43Zm2.03-26.63a3.71 3.71 0 0 0 3.5-.27c.26-.17.5.26.23.43a4.16 4.16 0 0 1-3.88.3.25.25 0 0 1-.16-.3.24.24 0 0 1 .3-.16Z" fill="#fff"/><path d="m57.37 101.15-.48.34a48.87 48.87 0 0 0-6.56 5.44 51.31 51.31 0 0 0-13.32 22.68c-.92 3.36-1.65 7.09-3.58 9.87-.2.3-.41.58-.64.84l-18.06.47-.13-.05-.72.05.08-.39.05-.22a2.3 2.3 0 0 0 .04-.2l.03-.12.5-2.22v-.01a73.15 73.15 0 0 1 5.76-16.34l.24-.47a47.5 47.5 0 0 1 4.11-6.59 42 42 0 0 1 2.73-3.28 34.86 34.86 0 0 1 8.6-6.77c6.38-3.58 13.85-5.09 20.82-3.18l.53.15Z" fill="#0C3B34"/><path d="M57.34 101.38a43.65 43.65 0 0 0-23.1 13.65 18.73 18.73 0 0 0-3.24 4.9 10.73 10.73 0 0 0-.73 5.61c.22 1.78.64 3.57.41 5.37a6.58 6.58 0 0 1-2.86 4.56c-1.9 1.34-4.16 1.91-6.39 2.4-2.48.54-5.06 1.06-7.1 2.67-.24.2-.53-.2-.28-.4 3.54-2.79 8.4-2.35 12.3-4.36 1.83-.93 3.38-2.42 3.78-4.5.35-1.8-.08-3.66-.31-5.45-.24-1.9-.16-3.72.5-5.52.67-1.84 1.8-3.5 3.04-5a42.32 42.32 0 0 1 10-8.66 44.55 44.55 0 0 1 13.93-5.76c.3-.06.35.42.05.49Z" fill="#fff"/><path d="M36.07 112.7a6.52 6.52 0 0 1-.08-8.45c.2-.24.59.06.39.3a6.04 6.04 0 0 0 .08 7.87c.2.23-.19.52-.4.28Zm-6.02 11.95c3.16.26 6.3-.68 8.8-2.63.25-.2.54.2.3.4a13.18 13.18 0 0 1-9.18 2.71c-.31-.02-.23-.5.08-.48Zm17.69-20.05a3.7 3.7 0 0 0 2.96 1.89c.31.02.23.5-.08.48a4.17 4.17 0 0 1-3.28-2.09.25.25 0 0 1 .05-.34.24.24 0 0 1 .19-.04c.06 0 .12.04.16.1Z" fill="#fff"/><path d="M163.36 9.65c-.27-.8-3.65-3.5-1.58-3.95l1.7 2.26L171.3.17l.79.79-8.72 8.7Zm0 26.5c-.27-.8-3.65-3.5-1.58-3.95l1.7 2.26 7.81-7.8.79.8-8.72 8.69Zm0 26.87c-.27-.8-3.65-3.5-1.58-3.95l1.7 2.26 7.81-7.79.79.79-8.72 8.7Z" fill="#00BAA8"/><path d="M156.17 41.3a2.4 2.4 0 1 0 0-4.82 2.4 2.4 0 0 0 0 4.81Zm0-26.21a2.4 2.4 0 1 0 0-4.82 2.4 2.4 0 0 0 0 4.82ZM218 7.15h-38.81v.48H218v-.48Zm-60.62 62.08a2.4 2.4 0 1 0 0-4.81 2.4 2.4 0 0 0 0 4.81ZM218 33.65h-38.81v.48H218v-.48Zm0 26.87h-38.81V61H218v-.48Z" fill="#3F3D56"/><path d="M169.45 66.6H157.4V54.34h8.2v.48h-7.72v11.3h11.09V60.6h.48v6.01Zm0-26.93H157.4V27.41h8.2v.48h-7.72v11.3h11.09v-5.53h.48v6.01Zm0-27.41H157.4V0h8.2v.48h-7.72v11.3h11.09V6.25h.48v6.01Z" fill="#3F3D56"/><path d="M90.76 43.7s-3.22 13.57.71 13.57c3.94 0 13.25-15.35 13.25-15.35L101.5 38l-5.8 8-.3-4.08-4.65 1.79Z" fill="#A0616A"/><path d="M103.86 42.51a3.13 3.13 0 1 0 0-6.26 3.13 3.13 0 0 0 0 6.26ZM88.03 136.1h4.17l1.98-16.04h-6.15v16.04Z" fill="#A0616A"/><path d="M87.88 140.45h12.83v-.17a4.97 4.97 0 0 0-5-4.98l-2.34-1.77L89 135.3h-1.12v5.15Z" fill="#181B0C"/><path d="m43.16 130.91 3.73 1.86 8.96-13.47-5.5-2.75-7.2 14.36Z" fill="#A0616A"/><path d="m41.08 134.73 11.48 5.72.07-.15a4.97 4.97 0 0 0-2.23-6.68L49.1 131l-4.71-.36-1-.5-2.3 4.6Z" fill="#181B0C"/><path d="M137.37 140.46H0v.54h137.37v-.54Z" fill="#CCC"/><path d="M61.06 68.32 59.03 92.6a30.4 30.4 0 0 1-1.79 7.85s-.71 1.43-.71 2.86L48.42 118s-2.48 1.82-2.13 3.25c.36 1.43-1.49 2.28-1.49 2.28l8.54 1.64s-.35-1.07.72-1.42c1.07-.36 1.93-3.46 1.93-3.46l12-19.5 8.58-17.84s5.01 16.06 6.09 17.85c0 0 3.93 19.99 4.65 21.77.71 1.79 1.07 1.79.71 2.5-.35.72-.35 1.43 0 1.79.36.35 7.16 0 7.16 0l-1.79-25.35-3.22-30.35-16.46-5-12.65 2.15Z" fill="#181B0C"/><path d="M77.18 20.59a7.5 7.5 0 1 0 .02-15.01 7.5 7.5 0 0 0-.02 15.01Z" fill="#A0616A"/><path d="m90.89 31.55-8.95-5.41s-.25-3.36-2.8-3.52l-6.08-.38c-.6-.04-1.02 3.28-1.72 3.24l-9.44 2.5 1.43 24.27s-2.15 9.64-1.43 11.43c.71 1.78-1.8 2.5-1.08 2.85.72.36 0 2.86 0 2.86s13.96 7.14 29.35 1.78l-1.43-4.64a3.74 3.74 0 0 0-.72-3.57s1.44-2.14-.35-3.92c0 0 .71-3.22-1.08-4.65l-.36-5 1.08-2.5 3.58-15.34Z" fill="#00D7AD"/><path d="m70.66 17.38-.21-.5c-.03-.05-2.69-6.32-.33-10.19 1.09-1.79 3.07-2.8 5.89-3 4.41-.32 7.43.72 8.98 3.1a2.66 2.66 0 0 1-2.25 4.1h-.06l-.81-1.05-.05.1c-.3.64-.97.98-1.76.9-.13 0-.25.11-.34.36a.63.63 0 0 1-.48.44c-.58.11-1.41-.62-1.78-.99a.6.6 0 0 1-.28.41c-.4.23-1-.07-1.18-.16-1.4.3-2.3.22-2.69-.24-.26 1.86-.82 5.2-1.5 5.38a.34.34 0 0 1-.37-.17c-.16-.2-.3-.31-.4-.28-.22.07-.35.79-.36 1.26l-.02.53Z" fill="#181B0C"/><path d="m86.95 31.9 3.57-.58a17.38 17.38 0 0 1 5.02 9.15c1.07 5.71 1.43 6.78 1.43 6.78l-8.59 2.15-4.65-8.93 3.22-8.57Z" fill="#00D7AD"/><path d="m71.1 39.33-2.2 27.9 56.3 4.43 2.21-27.9-56.3-4.43Z" fill="#fff"/><path d="M77.12 41.5a6.61 6.61 0 0 0-3.8-1.04 6.7 6.7 0 0 0 2.22 3.24 6.6 6.6 0 0 0 3.8 1.04 6.59 6.59 0 0 0-2.22-3.25Zm5.44 17.75-9.04-.71a2.05 2.05 0 0 0-2.2 1.87 2.03 2.03 0 0 0 1.88 2.19l9.04.7a2.04 2.04 0 0 0 2.2-1.86 2.03 2.03 0 0 0-1.88-2.2Z" fill="#00BAA8"/><path d="m125.2 41.05-50.7-3.99a4.51 4.51 0 0 0-4.84 4.13l-1.95 24.63a4.49 4.49 0 0 0 4.14 4.84l50.69 3.98a4.51 4.51 0 0 0 4.84-4.12l1.86-23.41.03-.48.06-.75a4.47 4.47 0 0 0-4.14-4.83Zm-1.5 21.43-.32 4.06a2.72 2.72 0 0 1-2.93 2.5l-6.78-.54a2.73 2.73 0 0 1-2.5-2.92l.32-4.06a2.72 2.72 0 0 1 2.93-2.49l6.78.54a2.73 2.73 0 0 1 2.5 2.91Zm-52.82-2.11a2.49 2.49 0 0 1 2.67-2.28l9.05.7a2.5 2.5 0 0 1 2.03 3.62 2.49 2.49 0 0 1-2.42 1.35l-9.05-.71a2.5 2.5 0 0 1-2.28-2.68ZM72.8 40.3l-.06-.26.26-.02c.1-.01 2.5-.23 4.38 1.1 1.87 1.34 2.44 3.68 2.47 3.78l.06.25-.26.03c-.37.03-.74.02-1.1 0a6.55 6.55 0 0 1-3.28-1.11 7.08 7.08 0 0 1-2.47-3.77Z" fill="#00BAA8"/><path d="m116.1 65.18-2.95-.24a.8.8 0 0 0-.12 1.58l2.94.23a.8.8 0 0 0 .85-.72.79.79 0 0 0-.73-.85Zm5.42.42-2.94-.23a.8.8 0 0 0-.85.73.8.8 0 0 0 .72.85l2.94.23a.8.8 0 0 0 .85-.73.8.8 0 0 0-.72-.85Zm-5.27-2.45-2.94-.23a.8.8 0 0 0-.85.72.8.8 0 0 0 .73.85l2.94.24a.8.8 0 0 0 .12-1.58Zm5.43.42-2.94-.23a.8.8 0 0 0-.13 1.58l2.94.23a.8.8 0 0 0 .86-.72.79.79 0 0 0-.73-.86Zm-5.27-2.45-2.94-.23a.8.8 0 0 0-.85.72.8.8 0 0 0 .73.85l2.94.24a.8.8 0 0 0 .85-.73.8.8 0 0 0-.73-.85Zm5.43.42-2.94-.23a.8.8 0 0 0-.85.73.8.8 0 0 0 .73.85l2.93.23a.8.8 0 0 0 .86-.72.8.8 0 0 0-.73-.86Z" fill="#00BAA8"/><path d="m68.9 48.96-.03.48 59.5 4.66.04-.48-59.5-4.66Z" fill="#fff"/><path d="m129.27 46.63-.03.48-2.08-.17-22.06-1.73.04-.47 22.06 1.72 2.07.17Z" fill="#3F3D56"/><path d="M56.53 41.54s-3.22 13.57.71 13.57c3.94 0 13.25-15.35 13.25-15.35l-3.22-3.93-5.79 8-.3-4.07-4.65 1.78Z" fill="#A0616A"/><path d="M69.63 40.35a3.13 3.13 0 1 0 0-6.26 3.13 3.13 0 0 0 0 6.26Z" fill="#A0616A"/><path d="m64.5 30.12-2.14-2.14s-4.3 2.5-4.66 5c-.35 2.5-2.14 10.35-2.14 10.35l6.62.53 2.15-3.21.17-10.53Z" fill="#00D7AD"/></g><defs><clipPath id="a"><path fill="#fff" d="M0 0h218v141H0z"/></clipPath></defs></svg>