<svg width="230" height="134" fill="none" xmlns="http://www.w3.org/2000/svg"><g clip-path="url(#a)"><path d="M74.28 130.65a65.33 65.33 0 1 0 0-130.66 65.33 65.33 0 0 0 0 130.66Z" fill="#F2F2F2"/><path d="M230 115.88c0 .16-.01.32-.04.47C228.36 126.15 177.5 134 115 134 52.5 134 1.64 126.14.04 116.35a3.06 3.06 0 0 1-.04-.47v-.24l.05-.29c.73-4 9.7-7.68 24.33-10.63 11.96-2.4 27.72-4.33 45.85-5.54A678.88 678.88 0 0 1 115 97.76a703.7 703.7 0 0 1 43.66 1.35c15.96 1.03 30.12 2.62 41.53 4.6a141 141 0 0 1 17.72 4.07c7.26 2.29 11.55 4.86 12.04 7.57a3.17 3.17 0 0 1 .04.32v.07l.01.14Z" fill="#3F3D56"/><path opacity=".1" d="M112.1 133.33c20.38 0 36.9-2.4 36.9-5.37 0-2.96-16.52-5.37-36.9-5.37-20.4 0-36.93 2.4-36.93 5.37s16.53 5.37 36.92 5.37Zm105.81-25.55c-1.3.37-2.75.71-4.34 1.03-6.57 1.29-15.53 2.08-25.4 2.08-11.03 0-20.9-.99-27.6-2.56-5.56-1.3-8.93-3-8.93-4.85 0-1.63 2.6-3.15 7.02-4.37 15.96 1.03 30.12 2.62 41.53 4.6 7.02 1.22 13 2.59 17.72 4.07Zm-98.88-2.47c0 3.38-21.24 6.13-47.44 6.13-26.19 0-47.43-2.75-47.43-6.13 0-.21.08-.42.22-.59 11.96-2.4 27.72-4.33 45.85-5.54h1.36c26.2 0 47.44 2.74 47.44 6.13Z" fill="#181B0C"/><path d="M102.5 74.94h-9.32v30.1h9.33v-30.1ZM71.86 60.82h-9.32v44.22h9.32V60.82Zm-30.38 0h-9.32v44.22h9.32V60.82Zm15.19 0h-9.32v30.1h9.32v-30.1Zm30.38 0h-9.33v8.79h9.33v-8.8Z" fill="#00BAA8"/><path d="M87.05 74.94h-9.33v30.1h9.33v-30.1Z" fill="#00D7AD"/><path d="M117.7 60.82H93.17v8.79h24.51v-8.8Zm64.66-2.65c6.38 0 11.8 2.23 16.28 6.68a22.02 22.02 0 0 1 4.89 7.34 24 24 0 0 1 .02 17.54 20.91 20.91 0 0 1-4.87 7.23 23.42 23.42 0 0 1-7.57 5.04 22.68 22.68 0 0 1-17.4.02 23.46 23.46 0 0 1-12.4-12.39 22.77 22.77 0 0 1 5.05-24.83 21.55 21.55 0 0 1 16-6.63Zm.08 4.11c-5.2 0-9.6 1.82-13.15 5.46a19.58 19.58 0 0 0-4.13 6.12 18.07 18.07 0 0 0 0 14.16 19.3 19.3 0 0 0 10.2 10.14 18.5 18.5 0 0 0 14.18-.02 19.69 19.69 0 0 0 6.21-4.11c3.56-3.47 5.33-7.83 5.33-13.07a18.22 18.22 0 0 0-5.41-13.19 18.04 18.04 0 0 0-13.23-5.49Zm-.28 14.9-3.06 1.59a3.13 3.13 0 0 0-1.2-1.43 2.7 2.7 0 0 0-1.32-.4c-2.04 0-3.05 1.34-3.06 4.02a5 5 0 0 0 .78 2.93 2.6 2.6 0 0 0 2.28 1.1c1.33 0 2.26-.65 2.8-1.95l2.81 1.42a6.7 6.7 0 0 1-5.98 3.59 6.66 6.66 0 0 1-4.92-1.88c-1.25-1.24-1.88-2.98-1.88-5.2 0-2.18.63-3.9 1.9-5.17a6.45 6.45 0 0 1 4.78-1.92c2.82 0 4.84 1.1 6.06 3.3Zm13.14 0-3 1.59a3.14 3.14 0 0 0-1.21-1.43c-.41-.25-.88-.4-1.36-.4-2.04 0-3.06 1.34-3.06 4.02a5 5 0 0 0 .78 2.93 2.6 2.6 0 0 0 2.28 1.1c1.33 0 2.26-.65 2.8-1.95l2.85 1.42a7 7 0 0 1-2.52 2.63 6.58 6.58 0 0 1-3.46.96 6.64 6.64 0 0 1-4.94-1.88c-1.24-1.24-1.86-2.98-1.86-5.2 0-2.18.63-3.9 1.9-5.17a6.45 6.45 0 0 1 4.78-1.92c2.82 0 4.83 1.1 6.02 3.3Z" fill="#00BAA8"/><path opacity=".1" d="M168.57 114.17c0 10.9-15.2 7.53-33.81 7.53-18.61 0-33.59 3.37-33.59-7.53s15.2-13.28 33.81-13.28c18.61 0 33.59 2.37 33.59 13.28Z" fill="#181B0C"/><path d="M168.57 111.48c0 10.9-15.2 7.53-33.81 7.53-18.61 0-33.59 3.37-33.59-7.53s15.2-13.27 33.81-13.27c18.61 0 33.59 2.37 33.59 13.27Z" fill="#3F3D56"/><path d="m165.46 91.9.77 3.18a.2.2 0 0 1 0 .1l-3.49 10.9a.2.2 0 0 1-.33.07.2.2 0 0 1-.05-.12l-.49-4.24a.2.2 0 0 1 .01-.08l3.2-9.82a.2.2 0 0 1 .31-.1.2.2 0 0 1 .07.12Z" fill="#181B0C"/><path d="m165.18 92.18.7 2.71-3.06 9.93-.72-3.07 3.08-9.57Z" fill="#F2F2F2"/><path d="M149.7 106.95c.11.36 12.29-.12 12.4-.24.1-.14.2-.3.27-.47l.2-.47-.47-3.83-12.05-.43s-.3 3.25-.37 4.73c-.02.24-.01.48.01.71Z" fill="#181B0C"/><path opacity=".1" d="m160.57 102.46.24 3.3h-5.32v-3.3h5.08Zm-6.86 1.06h.03l-.15 1.42h-2.95v-1.42h3.07Zm-4.01 3.43c.11.36 12.29-.12 12.4-.24.1-.14.2-.3.27-.47h-12.69c-.02.24-.01.48.01.71Z" fill="#181B0C"/><path d="M130.9 94.54h3.3l8.16-3.2s5.8-2.36 5.32 2.14c-.47 4.49-1.3 10.52-1.3 10.52s-2.6-1.19-4.02-.83c-1.41.35-.47-7.21-.47-7.21s-11.58 5.55-12.65 4.84c-1.06-.7-1.3-5.67-1.3-5.67l2.96-.59Z" fill="#181B0C"/><path opacity=".1" d="M130.9 94.54h3.3l8.16-3.2s5.8-2.36 5.32 2.14c-.47 4.49-1.3 10.52-1.3 10.52s-2.6-1.19-4.02-.83c-1.41.35-.47-7.21-.47-7.21s-11.58 5.55-12.65 4.84c-1.06-.7-1.3-5.67-1.3-5.67l2.96-.59Z" fill="#181B0C"/><path d="m136.11 84.18 4 5.75 9.35 7.8s8.63 2.01 7.44 3.43c-1.18 1.42-8.39-1.42-8.39-1.42s-10.76-7.8-11.11-8.4c-.36-.58-4.26-6.14-4.26-6.14l2.97-1.02Z" fill="#A0616A"/><path opacity=".1" d="m136.11 84.18 4 5.75 9.35 7.8s8.63 2.01 7.44 3.43c-1.18 1.42-8.39-1.42-8.39-1.42s-10.76-7.8-11.11-8.4c-.36-.58-4.26-6.14-4.26-6.14l2.97-1.02Z" fill="#181B0C"/><path d="M135.5 77.87a5.32 5.32 0 1 0 0-10.63 5.32 5.32 0 0 0 0 10.63Z" fill="#A0616A"/><path d="M135.15 77.28s-1.77 3.08-2.13 4.73c-.35 1.66-5.31-3.3-5.31-3.3l-.65-1.72s4.66-2.19 4.31-3.96c-.35-1.78 3.78 4.25 3.78 4.25Z" fill="#A0616A"/><path d="m133.74 79.53 2.6 5.08s-.6 2.48-1.54 2.72c-.95.24-4.97-3.07-4.97-3.07l3.9-4.73Z" fill="#0C3B34"/><path d="m136.1 86.5 4.85 6.39 11.58 8.62s8.4 1.78 6.5 3.08c-1.89 1.3-7.33-1.19-7.33-1.19s-11.7-6.26-14.18-8.86c-2.49-2.6-7.1-6.97-7.1-6.97l5.68-1.07Z" fill="#A0616A"/><path d="m129.6 96.43 1.42 2.25 8.46-2.67a6.65 6.65 0 0 1 5.54.67c1.48.93 2.43 2.41.3 4.6-4.26 4.37-7.1 2-7.1 2s-14.3 6.74-16.66 3.43c-2.37-3.3-2.48-4.96-2.48-4.96s9.1-5.67 10.52-5.32Z" fill="#181B0C"/><path d="M147.33 104.23s3.78 2.48-.71 3.67c-4.5 1.18-7.8-.48-7.8-.48s-3.9 0-3.9-2c0-2.02 1.3-2.25 1.3-2.25l4.02.59s4.84-1.3 7.09.47Z" fill="#D0CDE1"/><path d="M139.87 71.22c.35.19.73.32 1.12.4a1.02 1.02 0 0 0 1.02-.44c.1-.2.13-.41.12-.63.02-.65-.03-1.35-.44-1.85-.26-.32-.65-.52-.92-.84a3.93 3.93 0 0 1-.46-.75c-.53-1-1.3-1.94-2.4-2.23-.45-.1-.92-.13-1.39-.1l-2.73.03c-.44-.01-.88.04-1.31.15-.88.26-1.52 1-2.1 1.7a10.7 10.7 0 0 0-1.22 1.67 5.84 5.84 0 0 0-.69 2.87c0 .25.03.5.1.76.08.22.18.44.3.65.51 1 .81 2.26.24 3.23 1-.4 1.99-.94 2.65-1.8.3-.38.53-.83.92-1.11.4-.28 1.04-.3 1.3.1.08.17.12.36.12.54 0 .32.05.63.15.92a.68.68 0 0 0 .75.42c.5-.14.46-.93.86-1.3.3-.26.76-.21 1.15-.34a1.7 1.7 0 0 0 .98-.96c.15-.33.14-1.19.42-1.37.35-.22 1.14.13 1.46.28Z" fill="#181B0C"/><path d="M126.63 76.43c.24-.07.5-.07.73 0 .76.2 2.46.74 2.83 1.56.47 1.07 2.13 2.72 2.13 2.72s2.24 2.25 1.77 3.78c-.47 1.54-2.25 3.31-2.25 3.31s.48 7.33-1.89 9.22c-2.36 1.9-3.3.6-3.3 2.37s-7.34 7.32-8.76 3.9c0 0 .71-6.39.48-8.63-.24-2.22.1-16.02 8.26-18.23Z" fill="#0C3B34"/><path d="M130.43 79.41s7.2 5.32 5.9 7.57c0 0-4.37 2.12-5.31 2-.95-.11-4.61-4.25-5.56-4.6-.95-.36-1.42-6.74 4.97-4.97Z" fill="#0C3B34"/><path d="M110.48 84.18c-1.12.38-2.14 1.26-2.36 2.42-.11.54-.05 1.1-.14 1.64-.2 1.26-1.19 2.22-2.1 3.1-.9.9-1.84 1.93-1.91 3.2-.07 1.4.94 2.7.76 4.08-.2 1.6-1.9 2.65-2.32 4.21a4.05 4.05 0 0 0 .63 3.09 8.85 8.85 0 0 0 4.87 3.59c1.96.64 4.05.77 6.1.8 2.52.02 5.24-.2 7.12-1.85a5.7 5.7 0 0 0 1.9-3.71c.17-1.92-.63-3.9-.07-5.74.34-1.17 1.22-2.23 1.09-3.43-.13-1.18-1.16-2.01-1.87-2.97a12.02 12.02 0 0 1-1.45-2.97l-1.34-3.54a4.1 4.1 0 0 0-1.14-1.88c-1.1-.86-2.87-.69-4.16-.51-1.19.16-2.46.08-3.6.47Z" fill="#181B0C"/><path d="M110.9 94.49s.6 1.93-3.86 4.16c-4.46 2.23.44 4.6.44 4.6l5.2 1.2s5.36-.75 5.95-1.64c.6-.89 1.64-3.86 1.34-4.3a7.02 7.02 0 0 0-.74-.9s-3.57-.6-3.42-2.23c.15-1.63-4.9-.9-4.9-.9Z" fill="#FFB9B9"/><path opacity=".1" d="M110.9 94.49s.6 1.93-3.86 4.16c-4.46 2.23.44 4.6.44 4.6l5.2 1.2s5.36-.75 5.95-1.64c.6-.89 1.64-3.86 1.34-4.3a7.02 7.02 0 0 0-.74-.9s-3.57-.6-3.42-2.23c.15-1.63-4.9-.9-4.9-.9Z" fill="#181B0C"/><path d="M113.8 97.54a4.76 4.76 0 1 0 0-9.52 4.76 4.76 0 0 0 0 9.52Z" fill="#FFB9B9"/><path d="M113.28 102.81s-5.73-.42-5.84-4.37c0 0-2.04-.24-2.63.36-.6.6-2.53 1.04-2.53 2.53 0 1.48 3.27 5.94 3.27 5.94s1.78 5.95 1.04 6.99-.89 3.71-.89 3.71 7.43-.6 8.62 0c1.19.6 5.95.6 6.24 0 .3-.6-.3-8.03-.3-8.03s1.34-1.78 1.05-3.86l3.56-4.16s-1.33-4.01-3.41-4.01c0 0-2.83-.75-2.9-.37-.08.37 1.41 4.53-5.28 5.27Z" fill="#FF6584"/><path d="M99.9 115.89s1.34 2.08 4.76 2.53c3.42.44 4.01-.75 3.72-1.04-.3-.3-3.87-1.64-3.87-1.64l-2.08-1.63-2.53 1.78Zm24.38-1.79-3.86 2.24s-5.06-.3-3.13 1.19c1.94 1.48 5.5.89 5.5.89l3.42-1.64-1.93-2.67Z" fill="#FFB9B9"/><path d="M104.96 117.97s-3.57 8.77.74 10.1c4.31 1.34 16.2 1.05 18.88-.73 2.67-1.79 3.42-4.17 2.97-4.91-.44-.74-3.42-2.82-5.5-2.97-2.08-.15-17.1-1.49-17.1-1.49Z" fill="#181B0C"/><path opacity=".05" d="M104.96 117.97s-3.57 8.77.74 10.1c4.31 1.34 16.2 1.05 18.88-.73 2.67-1.79 3.42-4.17 2.97-4.91-.44-.74-3.42-2.82-5.5-2.97-2.08-.15-17.1-1.49-17.1-1.49Z" fill="#181B0C"/><path d="M121.8 118.52s12.59-4.56 12.44.94c-.15 5.5-8.03 6.98-8.03 6.98l-2.38.3-13.08.45s.45-2.38-.59-2.68c0 0 3.42-.9 3.57-1.04.15-.15 8.62-3.12 9.21-3.27.6-.15 2.38-1.34 3.72-1.19 0 0 1.49-1.19 3.12-.89l-4.6.3-3.38.1Z" fill="#181B0C"/><path opacity=".1" d="M121.8 118.52s12.59-4.56 12.44.94c-.15 5.5-8.03 6.98-8.03 6.98l-2.38.3-13.08.45s.45-2.38-.59-2.68c0 0 3.42-.9 3.57-1.04.15-.15 8.62-3.12 9.21-3.27.6-.15 2.38-1.34 3.72-1.19 0 0 1.49-1.19 3.12-.89l-4.6.3-3.38.1Z" fill="#181B0C"/><path d="m119.57 119.25 1.59 3.63 9.66-3.42.75-1.93-2.53-.45-5.08.9-2.2.59-2.19.68Z" fill="#181B0C"/><path opacity=".1" d="m119.57 119.25 1.59 3.63 9.66-3.42.75-1.93-2.53-.45-5.08.9-2.2.59-2.19.68Z" fill="#181B0C"/><path d="M99.01 123.62s2.83 3.57 6.1 4.46c3.27.89 5.05-.3 5.05-.3l-1.04-4.16-.45-2.68-1.93-1.33-3.86-1.79-4.61-1.48s-1.93-.3-1.93 0 1.78 4.75 1.78 4.75l.9 2.53Z" fill="#181B0C"/><path d="M102.43 125.55s.6 4.31 1.34 4.6c.74.3 2.97-.29 3.57-.59.59-.3 2.61-1.67 2.61-1.67s-7.07-2.64-7.52-2.34Z" fill="#F2F2F2"/><path d="m115.96 126 2.82.44-.3 3.42-3.94-.96 1.42-2.9Z" fill="#FFB9B9"/><path d="M117.73 126.95s-1.33 1.57.01 2.46l.9.75s2.97.6 3.26.89c.3.3 1.49-.45 1.49-.45s.15-4.45 0-4.75c-.15-.3-1.93-.6-2.08-.3-.15.3-1.93.74-2.98.45l-.6.95Z" fill="#F2F2F2"/><path d="M105.85 119.01s-10.4-6.1-12.04-3.86c-1.64 2.23-3.42 5.35 1.34 7.73 4.75 2.37 19.62 7.28 19.62 7.28s2.23-3.42 2.23-4.31c0 0-7.88-3.57-9.22-3.87-1.34-.3-6.69-3.71-7.43-4a8.62 8.62 0 0 1-1.78-1.2l7.28 2.23Z" fill="#181B0C"/><path d="m102.88 100.58-.6.45s-1.34 3.42-1.48 5.35c-.15 1.93-1.94 7.88-1.79 8.62.15.74.3 1.34 1.2 2.08 0 0 1.18-2.68 3.26-2.23l2.53-9.21-3.12-5.06Zm20.81 0 1.19 1.34s.74 1.78.74 2.23c0 .44 1.48 6.98 1.63 7.28.15.3.75 4.01 0 4.9-.74.9-2.08 1.5-2.08 1.5s.9-3.13-1.93-3.28l.3-1.19-2.68-8.91 2.83-3.87Z" fill="#FF6584"/><path d="M103.17 110.81v7.83a1.88 1.88 0 0 0 1.86 1.89l16.37.24a1.88 1.88 0 0 0 1.91-1.81l.3-7.83a1.87 1.87 0 0 0-1.12-1.8c-.23-.1-.48-.15-.73-.16l-16.68-.24a1.87 1.87 0 0 0-1.9 1.88Z" fill="#3F3D56"/><path d="M114.08 92.63c2.83 0 5.12-1.24 5.12-2.76 0-1.52-2.3-2.76-5.12-2.76-2.83 0-5.12 1.24-5.12 2.76 0 1.52 2.3 2.76 5.12 2.76Z" fill="#181B0C"/><path d="M113.2 116.11a1.19 1.19 0 1 0 0-2.37 1.19 1.19 0 0 0 0 2.37Z" fill="#F2F2F2"/></g><defs><clipPath id="a"><path fill="#fff" d="M0 0h230v134H0z"/></clipPath></defs></svg>