<svg width="415" height="172" fill="none" xmlns="http://www.w3.org/2000/svg"><path d="m393.2 121.51-1.34 10.73-3.34 26.64h-67c.52-5.97 1.24-14.57 2-23.85l.23-2.8c1.92-23.32 4.01-49.7 4.01-49.7l8.81 1.64 17.1 3.18 6.96 1.3 18.64 3.48c9.3 1.73 15.7 15.23 13.93 29.38Z" fill="#F2F2F2"/><path d="m342.52 39.37 8.24 14.45-15.84 11.25-6.75-17.77 14.35-7.93Z" fill="#FFD5D5"/><path d="M332.03 53.04a20.44 20.44 0 0 0 20.41-20.46c0-11.3-9.14-20.46-20.41-20.46a20.44 20.44 0 0 0-20.41 20.46c0 11.3 9.13 20.46 20.4 20.46Z" fill="#FFD5D5"/><path d="M330.56 37.15c-1.62-2.47-.98-3.76-2.34-4.67 0 0-.55-.37-4.45-.58-.88-6.3-1.97-7.07-1.97-7.07-1.26-.89-3.13-.6-4.29-.06-2.46 1.14-2.17 3.6-3.83 4.08-2.28.65-6.44-3.02-6.85-7.23-.34-3.43 1.87-6.76 2.74-6.58.87.17 2.95-2.49 4.07-2.44.76.02 3.89-1.34 4.73-1.23.92.11 3.95 1.7 4.08 1.34.87-2.52.62-3.22 1.36-3.94 1.32-1.27 3.48-.38 6.86.1 6.97.97 8.18-1.33 11.75.23 1.8.79 3.32 2.92 6.26 7.13 4.12 5.9 6.18 8.86 6.19 12.3.01 3.5-1.68 3.28-2.43 8.48-.83 5.78.94 8.43-.99 10.3-1.49 1.46-4.5 1.8-6.1.53-2.72-2.19.84-7.45-2.17-11.3-1.84-2.36-5.56-3.4-7.26-2.24-1.93 1.32-.87 5.2-2.22 5.56-1.16.31-2.85-2.28-3.14-2.7Z" fill="#181B0C"/><path d="M378.11 117.73c-.57 9.76-2.83 12.84-3.62 24.36-.17 2.53-.28 5.47-.28 8.97v2.6c0 1.8-.03 3.5-.23 5.22a23 23 0 0 1-.89 4.21h-43.96v-.03a30.78 30.78 0 0 1-.66-4.19l-.1-1.1c-.14-1.44-.27-2.8-.6-4.1-.42-1.8-1.19-3.5-2.77-5.14-.65-.67-1.3-1.2-1.93-1.65l-.37-.25c-1.75-1.2-3.4-2.08-4.84-4.54l-.07-.1a15.1 15.1 0 0 1-1.35-3.08 10.02 10.02 0 0 1-.26-5.55c1.28-4.77 5.99-5.25 9.84-10.07.41-.52.82-1.1 1.22-1.73 1.74-2.84 2.2-5.34 2.76-8.31a32.1 32.1 0 0 0 .36-2.45c.31-2.83.16-5.27-.2-7.45-1.18-7.15-4.65-11.58-2.2-17.99a16.29 16.29 0 0 1 2.97-4.82c2.34-2.75 4.74-4.53 4.32-8.07-.42-3.57-3.12-4.06-3.42-7.18a8.16 8.16 0 0 1 1.32-4.87c3.1-5.26 10.8-10.1 15.7-9.94.9.02 1.71.23 2.38.62 2.42 1.43 1.4 4.55 5.12 8.92 2.75 3.25 5.87 4.55 7.05 5.17 4.7 2.45 8.5 9.67 11.09 18.91l.06.22a106 106 0 0 1 3.29 19.03c.23 2.82.37 5.66.4 8.47.03 2.24-.02 4.18-.13 5.91Z" fill="#00BAA8"/><path d="m345.2 151.16-.9 2.5-.57 1.57-1.3 3.65-1.52 4.21h-9.74l1.64-4.22.75-1.96 1.26-3.25 2.11-5.45 8.26 2.95Z" fill="#FFD5D5"/><path d="m374.64 83.25-.1 1.07a313.51 313.51 0 0 1-2.62 19.03 345.8 345.8 0 0 1-2.45 13.25c-1.99 9.68-4.46 19.22-7.26 25.5a31.22 31.22 0 0 1-2.8 5.09 60 60 0 0 1-4.68 6.22l-.22.25c-.26.32-.54.63-.82.94a93.01 93.01 0 0 1-8.7 8.49h-15.8l-.07-.03-2.28-1.01s.65-.76 1.74-2.2a57.29 57.29 0 0 0 1.74-2.4 127.9 127.9 0 0 0 8.49-13.96l.72-1.4.02-.04a110 110 0 0 0 1.22-2.48 52.97 52.97 0 0 0 4.7-15.05c.4-2.73.95-6.55.8-10.74-.1-2.77-.5-5.7-1.45-8.6a23.94 23.94 0 0 0-2.3-5.05c-2.79-4.65-5.06-4.84-6.87-9.91-.53-1.5-1.74-4.9-1.37-8.48.04-.45.12-.9.22-1.34.02-.13.06-.26.09-.38.28-1.1.75-2.19 1.46-3.22 1.38-2 3.26-3.2 4.95-3.9 1.95-.82 3.64-1 3.96-1.02 7.23-.65 12.84 5.44 15.9 8.77a45.93 45.93 0 0 0 3.26 3.24c7.7 6.9 9.82 2.5 10.37.21.08-.35.13-.65.15-.85Z" fill="#00BAA8"/><path d="M374.67 83a2.3 2.3 0 0 1 0 .02V83Z" fill="#6C63FF"/><path d="m99.58 40.32 16.72-7.06L123.47 48l-17.57 7.19-6.32-14.87Z" fill="#FFD5D5"/><path opacity=".1" d="m99.58 40.32 16.72-7.06L123.47 48l-17.57 7.19-6.32-14.87Z" fill="#000"/><path d="m101.96 34.7 16.5 19.05s-11.48 36.3-22.95 39.53c-11.48 3.24-32.64 19.05-32.64 19.05L36.34 95.08l12.9-19.05s31.2-42.77 39.45-42.77c8.25 0 13.27 1.44 13.27 1.44Z" fill="#00D7AD"/><path d="M79.67 158.88h-38.4l-2.42-3.26-9.91-13.28-2.28-3.05s-8.6-15.82-6.82-30.2c1.8-14.37 20.44-17.6 20.44-17.6h.77l22.83 20.1-1.36 18.71 7.22 12.04 9.93 16.54Z" fill="#2F2E41"/><path d="M49.14 158.88h-10.3V143.6l10.3 15.28Z" fill="#2F2E41"/><path d="m271.1 135.69-1.27 6.65-3.18 16.54h-63.82c.5-3.71 1.18-9.04 1.9-14.8l.22-1.74a8474.1 8474.1 0 0 0 3.83-30.85l8.39 1.02 16.28 1.98 6.63.8 17.76 2.16a15.42 15.42 0 0 1 13.27 18.24Z" fill="#F2F2F2"/><path d="M361.43 158.88h-34.62l.83-.99 10.38-1.71 21.38-3.54s.97 2.53 2.03 6.24Z" fill="#2F2E41"/><path d="m214.6 47.5 15.05 21.34-26.26.8-2.82-20.06 14.02-2.07Z" fill="#A0616A"/><path opacity=".1" d="m214.6 47.5 15.05 21.34-26.26.8-2.82-20.06 14.02-2.07Z" fill="#000"/><path d="M140.35 91.72c-1.93-5.59-6.37-9.11-9.92-7.88-3.54 1.23-4.85 6.76-2.92 12.34a14.7 14.7 0 0 0 3.7 5.93l8.48 23.56 10.94-4.23-9.52-22.77c.3-2.35.04-4.73-.76-6.95Z" fill="#A0616A"/><path d="m242.59 80.62-.02 21.75-2.02 8.03-4.15 16.52-3.03 15.2-2.25 11.32-.8 4.04c-.6.4-1.2.8-1.81 1.17h-52.45c-2.98-1.8-4.65-3.19-4.65-3.19s.83-.78 1.77-2.02c1.6-2.1 3.52-5.56 2.34-8.85a5.98 5.98 0 0 1-.24-2.47c.48-6.2 6.96-16.66 6.96-16.66l-1.34-15.53-.6-6.8 4.16-33.2 13.51-7.87 2.33-.23 23.03-1.25 9.52.55.44.12 9.3 19.37Z" fill="#0A6141"/><path d="M243.28 158.88H231.8l-.5-5.22-.01-.1 3.25-.22 8.45-.58.15 3.12.11 2.4.03.6Z" fill="#FFD5D5"/><path d="m246.1 86.1 4.82 28.35-3.93 27.9-.61 4.34-1.09 7.66-.33 2.36.01.25.08 1.92h-13.62l-.5-5.22-.05-.46-1.02-10.68-.02-.18-2.18-22.63 4.27-16.36.32-1.2v-.01l1.85-28.01-1.44-12.73-.01-.12.08.05.23.15A28.44 28.44 0 0 1 246.1 86.1ZM189 75.59l-5.24-5.43s-11.21 5.06-11.77 7.88c-.56 2.8-20.37 44.1-20.37 44.1l-8.61-23.06-11.22 7.5s9 35.82 17.42 37.5c8.41 1.68 36.62-42.39 36.62-42.39L189 75.6Z" fill="#0A6141"/><path d="M404.04 142.53H10.11c-5.58 0-10.11 6.46-10.11 14.4s4.53 14.4 10.11 14.4h393.93c5.58 0 10.12-6.46 10.12-14.4s-4.54-14.4-10.12-14.4Z" fill="#E6E6E6"/><path d="m239.87 110.1-.8 37.1a6.6 6.6 0 0 1-6.58 6.46h-68.1a6.6 6.6 0 0 1-6.59-6.24l-2.02-37.1a6.6 6.6 0 0 1 6.58-6.97h70.92a6.6 6.6 0 0 1 6.59 6.74Z" fill="#3F3D56"/><path d="M129.93 49.27c9 0 16.3-7.3 16.3-16.33 0-9.02-7.3-16.33-16.3-16.33s-16.3 7.31-16.3 16.33 7.3 16.33 16.3 16.33Zm-27.25 26.4 1.79 19.41 12.2 49.24-10.54 3.7-17.8-53.66-2.45-21.56 16.8 2.87Z" fill="#FFD5D5"/><path d="m97.83 110.1-.8 37.1a6.6 6.6 0 0 1-6.59 6.46h-68.1a6.6 6.6 0 0 1-6.58-6.24l-2.02-37.1a6.6 6.6 0 0 1 6.58-6.97h70.92a6.6 6.6 0 0 1 6.59 6.74Z" fill="#3F3D56"/><path d="M118.6 153.91c7.1 0 12.87-2.55 12.87-5.7 0-3.15-5.76-5.7-12.87-5.7-7.1 0-12.87 2.55-12.87 5.7 0 3.15 5.77 5.7 12.87 5.7Z" fill="#FFD5D5"/><path d="m77.4 78.64 7.35-39.27s20.44-2.87 21.15 3.96c.72 6.83-.5 40.2-.5 40.2l-28-4.89Z" fill="#00D7AD"/><path d="M123.35 35.51s10.08-3.6 14.33-5.54 12.7 11.59 12.89 4.44c.19-7.15-2.73-10.14-2.73-10.14s-.73-15.64-16.44-13.68c0 0 3.45-7.82-7.9-9.03C112.16.35 94.5 27.8 96.1 31.9c1.58 4.1 3.47 7.5-1.01 11.89-4.48 4.39-12.88 29.15-6.5 35.81 6.4 6.67 6.82 9.56 2.44 13.7-4.38 4.15-14.73 13.17-3.54 14.73 11.19 1.57-1.02.4 7.32-6.96 8.34-7.35 20.51-7.05 15.97-18.85-4.55-11.8 3.35-28.7 2.36-31.27-.99-2.56 2.21-18.85 2.21-18.85s7.45-1.1 8.01 3.4Z" fill="#181B0C"/><path d="M206.54 55.23c9.8 0 17.74-7.96 17.74-17.78s-7.94-17.78-17.74-17.78c-9.8 0-17.73 7.96-17.73 17.78s7.94 17.78 17.73 17.78Z" fill="#A0616A"/><path d="M207.96 13.55c-.51.3-1.2-.15-1.37-.73-.16-.57.03-1.18.22-1.74l.96-2.84c.68-2.02 1.4-4.1 2.87-5.63 2.22-2.32 5.74-2.9 8.92-2.48 4.07.55 8.1 2.76 9.99 6.42 1.9 3.66 1.09 8.76-2.34 11.04 4.88 5.6 6.59 11.86 6.32 19.3-.27 7.43-8.36 14.27-13.63 19.51-1.18-.71-2.25-4.07-1.6-5.28.65-1.22-.28-2.63.52-3.75.8-1.13 1.47.66.66-.45-.5-.7 1.49-2.33.73-2.75-3.68-2.04-4.9-6.63-7.21-10.15a17.25 17.25 0 0 0-12.6-7.6c-2.78-.26-5.72.22-8 1.83-2.28 1.62-3.75 4.51-3.22 7.26a6.56 6.56 0 0 1-1.8-5.37 6.54 6.54 0 0 1 3.13-4.72 10.56 10.56 0 0 1 2.23-9.92c2.38-2.63 12.02-2.18 15.49-1.49l-.27-.46Z" fill="#181B0C"/><path d="M208.5 26.53c4.6.5 7.91 4.48 10.71 8.17 1.62 2.12 3.31 4.47 3.27 7.14-.04 2.7-1.84 5.01-2.7 7.57a11.43 11.43 0 0 0 3.31 12.02 6.62 6.62 0 0 1-7.46-5.18c-.66-3.88 2.27-7.61 1.92-11.53-.3-3.45-3.02-6.1-5.32-8.68-2.3-2.57-4.47-6-3.4-9.29l-.33-.22Z" fill="#181B0C"/><path d="M277.2 144.34c-4.55 2.6-6.9 7.05-5.26 9.96 1.65 2.9 6.67 3.15 11.23.55a13.1 13.1 0 0 0 4.56-4.19l19.14-11.24-5.45-8.9-18.3 12.03c-2.08.11-4.12.73-5.92 1.8Z" fill="#FFD5D5"/><path d="M342.02 61.93c-.57-.23-5.59-2.13-10.17.38-5.27 2.9-6.08 9.49-6.36 11.8-.66 5.35 1.28 6.55 1.69 11.96.76 10.12 2.79-1.43-.44 3.2-1.12 1.6-12.53 26.38-18.83 31.24-12.24 9.44-20.01 16.1-20.01 16.1l8.87 9.65s14.03-3.74 26.42-11.8c12.71-8.28 19.07-12.42 23.99-20.51.42-.7 10.56-17.95 5.11-37.02-1.24-4.35-3.51-12.32-10.27-15Z" fill="#00BAA8"/><path d="m387.85 110.1-.8 37.1a6.6 6.6 0 0 1-6.58 6.46h-68.1a6.6 6.6 0 0 1-6.58-6.24l-2.03-37.1a6.6 6.6 0 0 1 6.58-6.97h70.92a6.6 6.6 0 0 1 6.59 6.74Z" fill="#3F3D56"/></svg>