<svg width="673" height="404" fill="none" xmlns="http://www.w3.org/2000/svg"><g clip-path="url(#a)"><path d="M129 314.47c0-7.33 27.62-13.28 61.7-13.28s61.68 5.95 61.68 13.28c0 4.7-11.35 8.83-28.47 11.19v72.74a6.16 6.16 0 0 1-6.17 6.16 6.16 6.16 0 0 1-6.17-6.16v-71.43c-6.52.5-13.55.78-20.88.78-7.33 0-14.36-.28-20.88-.78v71.43a6.16 6.16 0 0 1-6.17 6.16 6.16 6.16 0 0 1-6.17-6.16v-72.74c-17.12-2.36-28.47-6.49-28.47-11.19Z" fill="#CCC"/><path d="M183.87 192.95a26.56 26.56 0 1 1 26.57-26.55 26.56 26.56 0 0 1-26.57 26.55Z" fill="#181B0C"/><path d="M250 393.58h11.64l5.53-44.84H250v44.84Z" fill="#A0616A"/><path d="M269.95 390.26h-22.44v14.12h36.57a14.1 14.1 0 0 0-4.14-9.98 14.14 14.14 0 0 0-9.99-4.14Z" fill="#2F2E41"/><path d="m268.17 387.1 11.1-3.49-8.16-44.44-16.38 5.14 13.44 42.78Z" fill="#A0616A"/><path d="m286.2 377.96-21.4 6.71 4.22 13.47 34.9-10.94a14.12 14.12 0 0 0-6.95-8.29 14.14 14.14 0 0 0-10.77-.95Z" fill="#2F2E41"/><path d="M264.38 369.2c.51 0 1.02-.09 1.5-.27l8.55-3.2a4.29 4.29 0 0 0 2.67-4.92c-2.15-9.68-9.5-42.65-13.52-60.33-4.77-20.97-74.35-24.87-77.31-25.02l-.25-.02-7.82 9.83c-2.83 9.09-1.93 16.17 2.66 21.06 13.41 14.27 53.46 5.42 58.24 4.3l21.28 55.82a4.29 4.29 0 0 0 4 2.75Z" fill="#082A1E"/><path d="M252.04 375.84a4.25 4.25 0 0 0 1.5-.27l8.56-3.2a4.28 4.28 0 0 0 2.67-4.92c-2.16-9.69-9.5-42.65-13.53-60.33-4.77-20.97-74.35-24.87-77.31-25.03h-.24l-7.83 9.82c-2.83 9.08-1.93 16.17 2.66 21.06 13.42 14.27 53.46 5.42 58.24 4.3l21.28 55.82a4.28 4.28 0 0 0 4 2.75Z" fill="#082A1E"/><path d="M276.8 239.26c-.3.42-.59.87-.83 1.33l-46.81 4.93-6.74-9.23-15.27 8.34 13.23 22.4 57.41-14.62a9.97 9.97 0 0 0 11.17 1.89 9.95 9.95 0 0 0-1.4-18.57 9.97 9.97 0 0 0-10.75 3.53Z" fill="#A0616A"/><path d="M168.03 295.67a4.28 4.28 0 0 0 1.95-.47c9.36-4.76 27.58-13 44.48-14.72a4.17 4.17 0 0 0 2.94-1.66 4.28 4.28 0 0 0 .8-3.33c-1.53-8.43-5.03-29.91-4.58-47.13a23.31 23.31 0 0 0-4.75-14.7 23.35 23.35 0 0 0-12.89-8.5 76.01 76.01 0 0 0-9.4-1.86 23.56 23.56 0 0 0-10.82 1.17 23.52 23.52 0 0 0-14.64 15.26 23.5 23.5 0 0 0-.7 10.85c3.01 17.84 6.05 42.76 3.41 60.15a4.27 4.27 0 0 0 1.73 4.13 4.21 4.21 0 0 0 2.47.81Z" fill="#00BAA8"/><path d="M212.75 250.3a4.27 4.27 0 0 0 1.7-.36l12.2-5.28a4.27 4.27 0 0 0 2.22-5.6l-9.43-21.76a10.89 10.89 0 0 0-2.42-3.5 10.92 10.92 0 0 0-11.93-2.18 10.9 10.9 0 0 0-5.68 14.34l9.42 21.76a4.29 4.29 0 0 0 3.92 2.57Z" fill="#00BAA8"/><path d="M184.84 195.9a23.3 23.3 0 1 1-.02-46.6 23.3 23.3 0 0 1 .02 46.6Zm39.2 93.79a10.45 10.45 0 0 0 8.06-3.83 10.44 10.44 0 0 0 2.16-8.66 10.43 10.43 0 0 0-5.33-7.16 10.45 10.45 0 0 0-8.92-.42 10.02 10.02 0 0 0-1.25.63L176.3 251.2l-1.2-11.5-18.3-.5.12 19.16a10.32 10.32 0 0 0 7.46 9.8l49.66 14.13c.1.33.21.65.34.97a10.47 10.47 0 0 0 3.86 4.67 10.5 10.5 0 0 0 5.8 1.76Z" fill="#A0616A"/><path d="M158.35 248.6c.52.26 1.1.41 1.67.45l13.27.81a4.27 4.27 0 0 0 4.52-4l1.46-23.66a10.89 10.89 0 0 0-2.71-7.9 10.93 10.93 0 0 0-7.52-3.67 10.92 10.92 0 0 0-10.48 6.11 10.9 10.9 0 0 0-1.08 4.12l-1.46 23.66a4.28 4.28 0 0 0 2.33 4.07Z" fill="#00BAA8"/><path d="M187.18 292.08h74.97a3.32 3.32 0 1 0 0-6.64h-74.97a3.32 3.32 0 0 0-2.35 5.67 3.33 3.33 0 0 0 2.35.97Z" fill="#3F3D56"/><path d="M294.9 285.92v-46.47a6.17 6.17 0 0 0-6.17-6.16h-84.47a6.17 6.17 0 0 0-6.17 6.16v46.47a6.17 6.17 0 0 0 6.17 6.16h84.47a6.17 6.17 0 0 0 6.17-6.16Z" fill="#3F3D56"/><path d="M246.5 268.37a5.7 5.7 0 0 1-5.7-5.69 5.7 5.7 0 0 1 5.7-5.69 5.7 5.7 0 0 1 5.69 5.7 5.7 5.7 0 0 1-5.7 5.68Z" fill="#fff"/><path d="M484.3 208a9.55 9.55 0 0 1 14.55-1.65l30.14-15.55-1.88 17.51-28.33 12.08a9.6 9.6 0 0 1-12.74.23 9.59 9.59 0 0 1-3.27-5.98 9.59 9.59 0 0 1 1.54-6.64Z" fill="#BB858D"/><path d="M511.1 215.05a4.29 4.29 0 0 0 3.47.04l28.63-12.41a44 44 0 0 0 22.27-21.53l15.05-31.74a13.74 13.74 0 0 0-2.42-19.3 13.77 13.77 0 0 0-15.26-1.08 13.74 13.74 0 0 0-4.06 3.52l-26.45 49.04-24.43 18.44a4.27 4.27 0 0 0-1.5 4.67l2.4 7.73a4.28 4.28 0 0 0 2.3 2.62Z" fill="#00BAA8"/><path d="M581.18 112.08A23.3 23.3 0 1 1 604.5 88.8a23.3 23.3 0 0 1-23.3 23.3Zm-9.44 282.25H560.1l-5.53-44.84h17.17v44.85Z" fill="#BB858D"/><path d="M537.66 405.13h36.57v-14.12H551.8a14.13 14.13 0 0 0-9.99 4.14 14.11 14.11 0 0 0-4.14 9.98Z" fill="#2F2E41"/><path d="M609.7 394.33h-11.63l-5.54-44.84h17.18v44.84Z" fill="#BB858D"/><path d="M575.63 405.13h36.57v-14.12h-22.44a14.13 14.13 0 0 0-10 4.14 14.11 14.11 0 0 0-4.13 9.98Z" fill="#2F2E41"/><path d="M613.77 381.5a4.26 4.26 0 0 0 1.02-3.37L594.4 225.46l-50.6 8.59-5.41-3.24 13.97 144.85a4.28 4.28 0 0 0 3.88 3.76l15.33 1.27a4.28 4.28 0 0 0 1.8-.23 4.28 4.28 0 0 0 2.54-2.47c.22-.57.31-1.18.28-1.8l-3.97-68.97a.48.48 0 0 1 .93-.16l19.63 72.74a4.28 4.28 0 0 0 4.13 3.16h13.63a4.27 4.27 0 0 0 3.22-1.46Z" fill="#082A1E"/><path d="M578.71 236.15a3.35 3.35 0 0 1 4.29-.18l10.12 7.86a4.28 4.28 0 0 0 3.94.7 4.26 4.26 0 0 0 2.79-2.89c4.96-17.36 16.2-61.08 13.44-91.86-1.58-17.44-16.65-30.7-33.6-29.58-11.6.77-19.23 7.45-22.68 19.86-8.47 30.46-17.77 86.34-19.55 97.23a4.25 4.25 0 0 0 2.03 4.35 31.29 31.29 0 0 0 15.84 4.46c6.75 0 14.86-2.35 23.38-9.95Z" fill="#00BAA8"/><path d="M574.9 246.98a9.54 9.54 0 0 1 6.31-9.76 9.55 9.55 0 0 1 4.1-.5l14.12-30.82 9.34 14.93-14.83 26.98a9.59 9.59 0 0 1-9.9 8.03 9.59 9.59 0 0 1-9.14-8.86Z" fill="#BB858D"/><path d="M600.32 236.01a4.28 4.28 0 0 0 2.77-2.11l14.86-27.42a43.95 43.95 0 0 0 4.23-30.67l-7.77-34.25a13.75 13.75 0 0 0-4.07-9.71 13.76 13.76 0 0 0-15.01-2.91 13.76 13.76 0 0 0-8.43 12.75l9.47 54.9-7.83 29.57a4.28 4.28 0 0 0 1.7 4.6l6.66 4.61a4.28 4.28 0 0 0 3.42.64Z" fill="#00BAA8"/><path opacity=".14" d="m588.79 164.84 8.54 36.04L585 231.23l8.54-29.4-4.74-36.99Z" fill="#000"/><path d="M392.37 186.99a4.09 4.09 0 0 0 .77-3.52 96.96 96.96 0 0 1 0-45.07 4.1 4.1 0 0 0-2.18-4.65 4.02 4.02 0 0 0-1.77-.4h-37.84a4.08 4.08 0 0 0-4.03 3.42 158.74 158.74 0 0 0 0 48.34 4.08 4.08 0 0 0 4.03 3.42h37.84a4.04 4.04 0 0 0 3.18-1.54Zm58.54-133.35a4.1 4.1 0 0 0 .77-3.52 96.96 96.96 0 0 1 0-45.06 4.1 4.1 0 0 0-.77-3.52A4.03 4.03 0 0 0 447.73 0h-37.84a4.08 4.08 0 0 0-4.02 3.42 158.73 158.73 0 0 0 0 48.34 4.08 4.08 0 0 0 4.02 3.42h37.84a4.03 4.03 0 0 0 3.18-1.54Z" fill="#E6E6E6"/><path d="M357.8 98.24a158.73 158.73 0 0 0 0-48.34 4.08 4.08 0 0 0-4.02-3.42h-37.85a4.04 4.04 0 0 0-3.18 1.55 4.1 4.1 0 0 0-.77 3.5 96.96 96.96 0 0 1 0 45.08 4.1 4.1 0 0 0 .77 3.51 4.02 4.02 0 0 0 3.18 1.54h37.85a4.08 4.08 0 0 0 4.02-3.42Z" fill="#00D7AD"/><path d="M516.22 96.56a158.67 158.67 0 0 0 0-48.34 4.08 4.08 0 0 0-4.02-3.42h-37.84a4.04 4.04 0 0 0-3.19 1.54 4.1 4.1 0 0 0-.76 3.51 96.97 96.97 0 0 1 0 45.07 4.08 4.08 0 0 0 .76 3.51 4.03 4.03 0 0 0 3.19 1.54h37.84a4.08 4.08 0 0 0 4.02-3.41Z" fill="#0A6141"/><path d="M506.86 208.15a4.15 4.15 0 0 0 .78-3.58 98.55 98.55 0 0 1 0-45.8 4.17 4.17 0 0 0-2.21-4.73 4.1 4.1 0 0 0-1.8-.41h-38.47a4.15 4.15 0 0 0-4.09 3.47 161.3 161.3 0 0 0 0 49.14 4.15 4.15 0 0 0 4.1 3.47h38.46a4.1 4.1 0 0 0 3.23-1.56Z" fill="#00D7AD"/><path d="M472.58 174.32h20.27a2.85 2.85 0 0 0 2.84-2.84v-1.21a2.85 2.85 0 0 0-2.84-2.85h-20.27a2.85 2.85 0 0 0-2.84 2.85v1.2a2.85 2.85 0 0 0 2.84 2.85Zm0 11.9h20.27a2.85 2.85 0 0 0 2.84-2.85v-1.2a2.85 2.85 0 0 0-2.84-2.85h-20.27a2.85 2.85 0 0 0-2.84 2.85v1.2a2.85 2.85 0 0 0 2.84 2.85ZM486 68.2h19.86a2.85 2.85 0 0 0 2.85-2.85v-1.1a2.85 2.85 0 0 0-2.85-2.85H486a2.85 2.85 0 0 0-2.84 2.84v1.11A2.85 2.85 0 0 0 486 68.2Zm-126.87 83.57h19.86a2.85 2.85 0 0 0 2.84-2.84v-1.12a2.85 2.85 0 0 0-2.84-2.84h-19.86a2.85 2.85 0 0 0-2.85 2.85v1.1a2.85 2.85 0 0 0 2.85 2.85Zm0 14.05h19.86a2.85 2.85 0 0 0 2.84-2.85v-1.1a2.85 2.85 0 0 0-2.84-2.85h-19.86a2.85 2.85 0 0 0-2.85 2.84v1.11a2.85 2.85 0 0 0 2.85 2.85Zm0 14.05h19.86a2.85 2.85 0 0 0 2.84-2.85v-1.1a2.85 2.85 0 0 0-2.84-2.85h-19.86a2.85 2.85 0 0 0-2.85 2.84v1.11a2.85 2.85 0 0 0 2.85 2.85ZM486 79.9h19.86a2.85 2.85 0 0 0 2.85-2.84v-1.11a2.85 2.85 0 0 0-2.85-2.85H486a2.85 2.85 0 0 0-2.84 2.85v1.1A2.85 2.85 0 0 0 486 79.9Zm-68.5-59.14h19.86a2.85 2.85 0 0 0 2.85-2.84V16.8a2.85 2.85 0 0 0-2.85-2.85H417.5a2.85 2.85 0 0 0-2.85 2.85v1.1a2.85 2.85 0 0 0 2.85 2.85Zm-90.61 50.3h19.86a2.85 2.85 0 0 0 2.84-2.85V67.1a2.85 2.85 0 0 0-2.84-2.85h-19.86a2.85 2.85 0 0 0-2.85 2.85v1.11a2.85 2.85 0 0 0 2.85 2.85Z" fill="#fff"/><path d="M581.68 92.4c-1.96-2.92-1.2-4.45-2.83-5.53 0 0-.66-.43-5.37-.68-1.06-7.48-2.38-8.39-2.38-8.39-1.51-1.04-3.77-.7-5.17-.06-2.96 1.35-2.62 4.27-4.62 4.83-2.76.77-7.77-3.58-8.27-8.56-.4-4.07 2.26-8.02 3.31-7.8 1.05.2 3.55-2.95 4.9-2.9.93.03 4.7-1.58 5.72-1.46 1.1.14 4.76 2.02 4.91 1.6 1.06-2.99.75-3.82 1.65-4.67 1.6-1.51 4.2-.46 8.28.1 8.4 1.17 9.87-1.56 14.18.29 2.17.93 4 3.45 7.54 8.45 4.97 7 7.45 10.49 7.47 14.57.02 4.16-2.03 3.9-2.93 10.05-1 6.85 1.13 9.98-1.2 12.2-1.79 1.73-5.44 2.14-7.35.63-3.28-2.59 1.01-8.83-2.62-13.38-2.23-2.8-6.7-4.05-8.76-2.66-2.32 1.56-1.04 6.15-2.68 6.58-1.4.38-3.44-2.7-3.78-3.2Zm-398.9 44.66c.67.38 1.58-.2 1.8-.92.21-.72-.04-1.48-.3-2.2l-1.25-3.57c-.9-2.53-1.85-5.16-3.79-7.09-2.93-2.91-7.58-3.65-11.77-3.12-5.38.7-10.68 3.48-13.19 8.08-2.5 4.6-1.43 11.03 3.09 13.9-6.44 7.06-8.69 14.93-8.33 24.29.35 9.36 11.02 17.98 17.98 24.57 1.55-.9 2.96-5.12 2.1-6.65-.84-1.54.38-3.31-.68-4.73-1.06-1.4-1.94.84-.87-.56.67-.89-1.96-2.93-.96-3.46 4.86-2.56 6.47-8.35 9.52-12.78a22.96 22.96 0 0 1 16.63-9.56c3.67-.33 7.54.27 10.55 2.3 3 2.04 4.95 5.68 4.25 9.14a8.02 8.02 0 0 0 2.37-6.76 8.24 8.24 0 0 0-4.13-5.94c1.35-4.27.2-9.18-2.94-12.49-3.14-3.3-15.86-2.74-20.44-1.87l.35-.58Z" fill="#181B0C"/><path d="M182 153c-6.3.64-10.85 5.77-14.69 10.5-2.21 2.74-4.53 5.75-4.47 9.18.05 3.47 2.52 6.45 3.7 9.74 1.93 5.37.05 11.77-4.54 15.45 4.54.81 9.44-2.38 10.22-6.66.91-4.98-3.1-9.78-2.63-14.81.42-4.44 4.14-7.85 7.3-11.16 3.16-3.32 6.12-7.72 4.67-11.95l.44-.29Z" fill="#181B0C"/></g><defs><clipPath id="a"><path fill="#fff" transform="matrix(-1 0 0 1 747 0)" d="M0 0h747v404H0z"/></clipPath></defs></svg>
