<svg data-name="Layer 1" xmlns="http://www.w3.org/2000/svg" width="896.68" height="462.27"><path d="M895.48 462.17H1.2a1.2 1.2 0 0 1 0-2.38h894.3a1.2 1.2 0 0 1 0 2.38Z" fill="#3f3d56"/><circle cx="280.35" cy="50.98" r="6.47" fill="#f2f2f2"/><circle cx="254.58" cy="50.98" r="6.47" fill="#f2f2f2"/><circle cx="228.81" cy="50.98" r="6.47" fill="#f2f2f2"/><circle cx="203.03" cy="50.98" r="6.47" fill="#f2f2f2"/><circle cx="280.35" cy="77.98" r="6.47" fill="#f2f2f2"/><circle cx="254.58" cy="77.98" r="6.47" fill="#f2f2f2"/><circle cx="228.81" cy="77.98" r="6.47" fill="#f2f2f2"/><circle cx="203.03" cy="77.98" r="6.47" fill="#f2f2f2"/><circle cx="280.35" cy="104.98" r="6.47" fill="#f2f2f2"/><circle cx="254.58" cy="104.98" r="6.47" fill="#f2f2f2"/><circle cx="228.81" cy="104.98" r="6.47" fill="#f2f2f2"/><circle cx="203.03" cy="104.98" r="6.47" fill="#f2f2f2"/><circle cx="280.35" cy="131.98" r="6.47" fill="#f2f2f2"/><circle cx="254.58" cy="131.98" r="6.47" fill="#f2f2f2"/><circle cx="228.81" cy="131.98" r="6.47" fill="#f2f2f2"/><circle cx="203.03" cy="131.98" r="6.47" fill="#f2f2f2"/><circle cx="280.35" cy="158.98" r="6.47" fill="#f2f2f2"/><circle cx="254.58" cy="158.98" r="6.47" fill="#f2f2f2"/><circle cx="228.81" cy="158.98" r="6.47" fill="#f2f2f2"/><circle cx="203.03" cy="158.98" r="6.47" fill="#f2f2f2"/><circle cx="280.35" cy="185.98" r="6.47" fill="#f2f2f2"/><circle cx="254.58" cy="185.98" r="6.47" fill="#f2f2f2"/><circle cx="228.81" cy="185.98" r="6.47" fill="#f2f2f2"/><circle cx="203.03" cy="185.98" r="6.47" fill="#f2f2f2"/><path d="M223.53 362.4v2a12.51 12.51 0 0 0 12.5 12.5h90a12.5 12.5 0 0 0 12.5-12.5v-2a12.41 12.41 0 0 0-2.9-8 12.86 12.86 0 0 0-2.11-2s-49.48-1.12-49.48-2.5h-48.01a12.52 12.52 0 0 0-12.5 12.5Z" fill="#ccc"/><path fill="#ccc" d="M275.25 376.4h13v84h-13z"/><path d="M325.25 459.95c0 1.4-19.7.54-44 .54s-44 .86-44-.54 19.7-12.55 44-12.55 44 11.14 44 12.55Z" fill="#ccc"/><path d="M307.38 360.7a10.74 10.74 0 0 0-3.8-16.02l-27.56-93.89-20.98 10.28 33.68 89.05a10.8 10.8 0 0 0 18.66 10.58Z" fill="#a0616a"/><path d="m282.26 266.47-23.48 6.36a4.82 4.82 0 0 1-6.04-4.09l-2.84-24.09a13.38 13.38 0 0 1 25.84-6.91l9.68 22.15a4.82 4.82 0 0 1-3.16 6.58Z" fill="#00d7ad"/><path fill="#a0616a" d="M313.52 450.1h12.26l5.83-31.8h-18.1l.01 31.8z"/><path d="M310.39 446.1h24.14a15.39 15.39 0 0 1 15.39 15.38v.5h-39.53Zm17.36-13.05q-.22 0-.43-.02l-16.97-1.24a4.5 4.5 0 0 1-3.81-6.02l22.7-51.02a3.5 3.5 0 0 0-.19-2.8 3.45 3.45 0 0 0-2.21-1.76c-10.68-2.79-38.07-10.22-61.79-18.92-10.16-3.72-16.56-9.1-19.02-16-3.24-9.09 1.56-17.37 1.76-17.72l.17-.27 22.31 2.03 24.2 2.05 53 28.43a20.09 20.09 0 0 1 8.82 25.79l-24.44 54.8a4.5 4.5 0 0 1-4.1 2.67Z" fill="#2f2e41"/><circle cx="274.15" cy="193.82" r="24.56" fill="#a0616a"/><path fill="#a0616a" d="M306.52 449.1h12.26l5.83-31.8h-18.1l.01 31.8z"/><path d="M303.39 445.1h24.14a15.39 15.39 0 0 1 15.39 15.38v.5h-39.53Zm17.36-9.05q-.22 0-.43-.02l-16.97-1.24a4.5 4.5 0 0 1-3.81-6.02l22.7-51.02a3.5 3.5 0 0 0-.19-2.8 3.45 3.45 0 0 0-2.21-1.76c-10.68-2.79-38.07-10.22-61.79-18.92-10.16-3.72-16.56-9.1-19.02-16-3.24-9.09 1.56-17.37 1.76-17.72l.17-.27 22.31 2.03 24.2 2.05 53 28.43a20.09 20.09 0 0 1 8.82 25.79l-24.44 54.8a4.5 4.5 0 0 1-4.1 2.67Z" fill="#2f2e41"/><path d="m281.73 232.3-26-9s-16.33 12.54-8.49 43.65a77.01 77.01 0 0 1-3.4 48.32 49.78 49.78 0 0 1-2.61 5.53s29 35 56 9l-10.5-50.5s16.5-33.5-5-47Zm-4.53-13.09c-3.5-5.23-6.25-12.49-2.4-17.46 3.8-4.92 11.29-4.2 17.1-6.37 8.1-3.03 12.8-12.55 11.34-21.07s-8.3-15.6-16.46-18.49-17.35-1.95-25.33 1.38c-9.83 4.1-18.27 12.03-21.8 22.07s-1.65 22.11 5.69 29.83c7.86 8.28 20.2 10.49 31.62 10.36" fill="#2f2e41"/><path d="M254.35 174.58c-4.4 3.59-11.12 2-15.85-1.15s-8.57-7.63-13.68-10.1c-9.02-4.35-19.93-1.46-28.7 3.36s-16.56 11.48-25.83 15.26-21.1 3.96-28.13-3.18a25.73 25.73 0 0 0 37.71 30.38c10.16-6.2 15.77-19.17 27.17-22.58 6.3-1.9 13.07-.37 19.45 1.28s13.01 3.43 19.44 2.02 12.45-7.18 11.63-13.71Z" fill="#2f2e41"/><path d="M334.3 406a167.5 167.5 0 0 1 0-50.97 4.3 4.3 0 0 1 4.24-3.6h39.88a4.25 4.25 0 0 1 3.35 1.62 4.32 4.32 0 0 1 .8 3.7 102.33 102.33 0 0 0 0 47.53 4.32 4.32 0 0 1-.8 3.7 4.25 4.25 0 0 1-3.35 1.63h-39.88a4.3 4.3 0 0 1-4.23-3.6Z" fill="#00d7ad"/><path d="M366.15 376.1h-20.93a3 3 0 0 1-3-3v-1.17a3 3 0 0 1 3-3h20.93a3 3 0 0 1 3 3v1.17a3 3 0 0 1-3 3Zm0 12.35h-20.93a3 3 0 0 1-3-3v-1.18a3 3 0 0 1 3-3h20.93a3 3 0 0 1 3 3v1.18a3 3 0 0 1-3 3Z" fill="#fff"/><path d="M344.8 356.2a10.74 10.74 0 0 0-7.7-14.56l-50.13-84.03-17.75 15.2 54.86 77.81a10.8 10.8 0 0 0 20.71 5.58Z" fill="#a0616a"/><path d="m296.93 271.24-21.15 12.02a4.82 4.82 0 0 1-6.87-2.45l-8.77-22.61a13.38 13.38 0 0 1 23.3-13.16l14.9 19.04a4.82 4.82 0 0 1-1.41 7.16Z" fill="#2f2e41"/><path d="M521.97 300.75h-406a6.5 6.5 0 1 0 0 13h11.5v141.5a6.5 6.5 0 0 0 13 0V326.24l72.87 132.08a6.5 6.5 0 0 0 11.26-6.5l-76.18-138.07h348.05v.08l-76.13 137.99a6.5 6.5 0 1 0 11.26 6.5l64.87-117.58v114.51a6.5 6.5 0 0 0 13 0V317.18l1.89-3.43h10.6a6.5 6.5 0 0 0 0-13Z" fill="#3f3d56"/><rect x="271.47" y="296.75" width="86" height="7" rx="3.5" fill="#ccc"/><path d="M406.97 303.75h-89a6.5 6.5 0 0 1-6.5-6.5v-49a6.5 6.5 0 0 1 6.5-6.5h89a6.5 6.5 0 0 1 6.5 6.5v49a6.5 6.5 0 0 1-6.5 6.5Z" fill="#ccc"/><circle cx="362.47" cy="272.75" r="6" fill="#fff"/><path d="M474.89 183.02V7.52A7.53 7.53 0 0 1 482.4 0h138.73a7.53 7.53 0 0 1 7.52 7.52v175.5a7.53 7.53 0 0 1-7.52 7.52H482.4a7.53 7.53 0 0 1-7.52-7.52ZM482.4 1.67a5.86 5.86 0 0 0-5.85 5.85v175.5a5.86 5.86 0 0 0 5.85 5.85h138.73a5.86 5.86 0 0 0 5.85-5.85V7.52a5.86 5.86 0 0 0-5.85-5.85Z" fill="#e6e6e6"/><path d="M559.55 80.6V44.56a3.76 3.76 0 0 1 3.76-3.76h30.54a3.76 3.76 0 0 1 3.76 3.76V80.6a3.76 3.76 0 0 1-3.76 3.76h-30.54a3.76 3.76 0 0 1-3.76-3.76Z" fill="#00d7ad"/><path d="M500.22 97.31V61.28a3.76 3.76 0 0 1 3.76-3.76h30.54a3.76 3.76 0 0 1 3.76 3.76V97.3a3.76 3.76 0 0 1-3.76 3.76h-30.54a3.76 3.76 0 0 1-3.76-3.76Z" fill="#ccc"/><path d="M547.85 148.3v-36.05a3.76 3.76 0 0 1 3.76-3.76h30.54a3.76 3.76 0 0 1 3.76 3.76v36.04a3.76 3.76 0 0 1-3.76 3.76h-30.54a3.76 3.76 0 0 1-3.76-3.76Z" fill="#ff6584"/><circle cx="780.74" cy="11.82" r="6.47" fill="#f2f2f2"/><circle cx="780.74" cy="37.59" r="6.47" fill="#f2f2f2"/><circle cx="780.74" cy="63.37" r="6.47" fill="#f2f2f2"/><circle cx="780.74" cy="89.14" r="6.47" fill="#f2f2f2"/><circle cx="753.74" cy="11.82" r="6.47" fill="#f2f2f2"/><circle cx="753.74" cy="37.59" r="6.47" fill="#f2f2f2"/><circle cx="753.74" cy="63.37" r="6.47" fill="#f2f2f2"/><circle cx="753.74" cy="89.14" r="6.47" fill="#f2f2f2"/><circle cx="726.74" cy="11.82" r="6.47" fill="#f2f2f2"/><circle cx="726.74" cy="37.59" r="6.47" fill="#f2f2f2"/><circle cx="726.74" cy="63.37" r="6.47" fill="#f2f2f2"/><circle cx="726.74" cy="89.14" r="6.47" fill="#f2f2f2"/><circle cx="699.74" cy="11.82" r="6.47" fill="#f2f2f2"/><circle cx="699.74" cy="37.59" r="6.47" fill="#f2f2f2"/><circle cx="699.74" cy="63.37" r="6.47" fill="#f2f2f2"/><circle cx="699.74" cy="89.14" r="6.47" fill="#f2f2f2"/><circle cx="672.74" cy="11.82" r="6.47" fill="#f2f2f2"/><circle cx="672.74" cy="37.59" r="6.47" fill="#f2f2f2"/><circle cx="672.74" cy="63.37" r="6.47" fill="#f2f2f2"/><circle cx="672.74" cy="89.14" r="6.47" fill="#f2f2f2"/><circle cx="645.74" cy="11.82" r="6.47" fill="#f2f2f2"/><circle cx="645.74" cy="37.59" r="6.47" fill="#f2f2f2"/><circle cx="645.74" cy="63.37" r="6.47" fill="#f2f2f2"/><circle cx="645.74" cy="89.14" r="6.47" fill="#f2f2f2"/><path d="M671.8 241.25a11 11 0 0 1 7.76-14.46 10.59 10.59 0 0 1 1.45-.24l24.3-42.6-6.13-10.54 15.27-11.78 11.7 16.23a11.15 11.15 0 0 1-.27 13.3l-33.36 42.72a10.5 10.5 0 0 1 .3 1.04 11 11 0 0 1-9.35 13.49 10.7 10.7 0 0 1-1.35.08 11.04 11.04 0 0 1-10.33-7.24Zm-47.42 209.64h-12.26l-5.83-47.29h18.09v47.29z" fill="#ffb8b8"/><path d="M603.36 447.38h23.65v14.9h-38.53a14.89 14.89 0 0 1 14.88-14.9Z" fill="#2f2e41"/><path fill="#ffb8b8" d="M725.38 450.89h-12.26l-5.83-47.29h18.09v47.29z"/><path d="M704.36 447.38h23.65v14.9h-38.53a14.89 14.89 0 0 1 14.88-14.9Z" fill="#2f2e41"/><path d="m717.86 163.93-27.53 10.46-6.72-18.67a11.17 11.17 0 0 1 5-13.5 11.17 11.17 0 0 1 14.27 2.79Z" fill="#00d7ad"/><path d="m625.44 412.59-23.09-5.27a4.99 4.99 0 0 1-3.8-5.62c9.25-58.7 18.17-93.09 41.13-136.75.32-.81 3.9-17.34 6.25-28.28a4.97 4.97 0 0 1 4.21-5.03l43.05-6.62a5.57 5.57 0 0 1 2.02-.3l.43.08v.42c-.01.44-.45.5-.61.53l-.57.09a6.68 6.68 0 0 1 1.77 1.2c18.86 22.69 28.67 97.04 41.12 179.19a4.48 4.48 0 0 1-1.3 3.64 4.93 4.93 0 0 1-3.54 1.6l-27.5.68a4.98 4.98 0 0 1-5.03-4.22l-18.53-107.05a3.97 3.97 0 0 0-7.5-1.16c-14.94 30.44-28.87 56.76-42.6 109.27a4.95 4.95 0 0 1-4.8 3.73 5.03 5.03 0 0 1-1.11-.13Z" fill="#2f2e41"/><path d="M647.85 237.89a5 5 0 0 1-2.09-3.55c-3.52-32.9-1.07-58.66 7.5-78.73a25 25 0 0 1 16.57-14.18l22.25-1.13.12.06a26 26 0 0 1 14.22 27.59c-7.16 18.86-13.15 38.5-8.58 54.34a5.12 5.12 0 0 1-.48 3.99 4.88 4.88 0 0 1-3.12 2.3l-42.38 10.09a4.96 4.96 0 0 1-4.01-.78Z" fill="#00d7ad"/><path d="M638.27 190.66 595.59 157a10.52 10.52 0 0 1-1.03.3 11.03 11.03 0 0 1-8.82-1.69 10.91 10.91 0 0 1-4.63-7.73 11.02 11.02 0 0 1 7.21-11.64 11 11 0 0 1 14.43 7.84 10.57 10.57 0 0 1 .23 1.45l42.48 24.5 10.57-6.08 11.71 15.33-16.41 11.7a10.94 10.94 0 0 1-13.06-.32Z" fill="#ffb8b8"/><path d="M672.95 184.06 648.6 167.5l11.44-16.2a11.17 11.17 0 0 1 13.93-3.65 11.17 11.17 0 0 1 5.9 13.28Z" fill="#00d7ad"/><circle cx="684.66" cy="107.43" r="24.56" fill="#ffb8b8"/><path d="M675.65 103.77c-6.3 4.32-14.6 8.76-21.04 4.16-4.24-3.02-5.57-8.61-3.86-13.52 3.1-8.83 11.57-12.72 19.69-15.7 10.54-3.87 22.02-6.95 32.9-4.18s20.51 13.32 18.55 24.38c-1.58 8.9-9.97 16.3-8.78 25.25 1.2 9 11.33 13.75 20.28 15.36s18.96 2.13 25.39 8.56c8.2 8.2 6.15 22.85-1.56 31.5s-19.37 12.59-30.66 15.26c-14.95 3.53-31.13 5.39-45.33-.48s-25.26-21.65-21.14-36.46c1.74-6.25 5.83-11.54 9.79-16.68s7.96-10.53 9.47-16.84c1.26-5.26.33-11.37-3.16-15.32a4.44 4.44 0 0 1-.6-5.18Z" fill="#2f2e41"/></svg>